<svg xmlns="http://www.w3.org/2000/svg" width="112.47" height="112.47" viewBox="0 0 112.47 112.47">
  <g id="Appoimentscheduled" transform="translate(-163 -87)">
    <rect id="Rectangle_2" data-name="Rectangle 2" width="112.47" height="112.47" transform="translate(163 87)" fill="#fff"/>
    <g id="AppoimentScheduled-2" data-name="AppoimentScheduled" transform="translate(-78.209 -104.006)">
      <g id="time" transform="translate(251 219.657)">
        <path id="Path_19" data-name="Path 19" d="M94.828-461.527l-1.667-.879-2.2.455-2.18.424L56.239-455.2l-1.893-4.983L50.44-461.41l-.657-.206-1.095-.343-.7-.22-.721-.226-.611-.2-.691-.129H37.991l-1.022-.183-.351-.063-1.056-.189h-.6l-.511-.2-.4-.071-.533-.1-1.038-.673-.82-.531-1.855-.6-1.257-.4-2.076-.471-2.92-.663-5.424-.737-3.385-.7-3.558-1.213H1.039C-.06-468.426,0-469.2,0-454.106c0,9.556.077,14.1.212,14.5A5.451,5.451,0,0,0,3.2-437.346c.463.1,2.816.161,5.959.161,5.053,0,5.246-.015,6.172-.351a4.87,4.87,0,0,0,1.234-.57c.231-.234,1.948-.248,21.408-.248,23.548-.015,22.912.015,25.689-.994,2.43-.862,32.343-14.715,33.269-15.387a4.994,4.994,0,0,0,1.356-1.435,3.522,3.522,0,0,0,.361-1.911l-2.052-2.107Zm-83.451-6.4c.251.5.251,27.383,0,27.88l-.193.38H8.1c-3.722,0-4.3-.117-4.629-.979-.154-.395-.193-4.384-.154-13.75l.058-13.209.54-.351c.521-.336.636-.351,3.915-.351h3.356Zm12.362,2.309a18.081,18.081,0,0,1,5.844,2.09,20.1,20.1,0,0,0,5.882,2.192c1.6.365,1.871.38,8.119.468h5.191l1.27.687c2.276.848,4.86,2.323,4.667,3.8a3.348,3.348,0,0,1-.366,1.184l-.251.409-6.075.088c-6.48.1-7.5.2-10.029.95a19.551,19.551,0,0,0-4.474,1.973.948.948,0,0,0-.1,1.651c.771.658,1.215.614,3.2-.278a25.571,25.571,0,0,1,3.279-1.213l1.466-.395,9.354-.073,9.354-.073,15.815-4c11.687-2.966,16.046-4,16.74-4.018a2.956,2.956,0,0,1,2.334.979,1.756,1.756,0,0,1-.135,2.338c-.328.321-5.4,2.732-16.065,7.642-8.582,3.96-15.969,7.321-16.412,7.5-2.025.76-1.485.745-23.626.745h-20.6v-24.841h2.179A29.842,29.842,0,0,1,23.739-465.621Z" transform="translate(0.003 486.655)" fill="#c90d41"/>
        <path id="Icon_material-timer" data-name="Icon material-timer" d="M22.5,1.5h-9v3h9ZM16.5,21h3V12h-3Zm12.045-9.915,2.13-2.13A16.573,16.573,0,0,0,28.56,6.84L26.43,8.97a13.5,13.5,0,1,0,2.115,2.115ZM18,30A10.5,10.5,0,1,1,28.5,19.5,10.492,10.492,0,0,1,18,30Z" transform="translate(44.37 -1.5)" fill="#c90d41"/>
      </g>
      <rect id="Rectangle_3" data-name="Rectangle 3" width="8.7" height="29" rx="1" transform="translate(254.209 238.006)" fill="#fac040"/>
    </g>
    <rect id="Rectangle_4" data-name="Rectangle 4" width="3.8" height="9.65" transform="translate(233 126)" fill="#fac040"/>
  </g>
</svg>
