<svg xmlns="http://www.w3.org/2000/svg" width="112.47" height="112.47" viewBox="0 0 112.47 112.47">
  <g id="defaulter" transform="translate(-968.435 -81.325)">
    <rect id="Rectangle_9" data-name="Rectangle 9" width="112.47" height="112.47" transform="translate(968.435 81.325)" fill="#fff"/>
    <g id="debt" transform="translate(974.055 595.615)">
      <path id="Path_28" data-name="Path 28" d="M39.683-505.52a18.776,18.776,0,0,1-5.062,2.236c-1.607.406-2.309.462-7.224.591-4.933.148-5.561.185-6.651.573a14.345,14.345,0,0,0-9.5,10.18,18.009,18.009,0,0,0,.185,7.538l.462,1.884-.425.868a7.119,7.119,0,0,0-.148,4.877,5.8,5.8,0,0,0,4.619,3.621l.868.074.314,1.423a13.381,13.381,0,0,0,6.208,8.554c.868.517,1.053.7.794.776a11.7,11.7,0,0,0-1.7,1.182,14.9,14.9,0,0,0-5.007,7.39l-.406,1.33H14.132c-3.252,0-3.88.185-4.97,1.312C7.943-449.817,8-450.741,8-433.207S7.943-416.6,9.162-415.3a5.534,5.534,0,0,0,1.33.961c.7.333,1.774.351,25.551.351,27.38,0,25.5.074,26.808-1.164a6.038,6.038,0,0,0,1.016-1.46l.388-.887,1.219.739a23.987,23.987,0,0,0,5.487,2.254,25.836,25.836,0,0,0,9.09.185,20.6,20.6,0,0,0,16.277-16.2,25.486,25.486,0,0,0,.055-8.037,22.34,22.34,0,0,0-2.032-5.857l-.628-1.127v-33.477h1.718c1.958,0,2.642-.259,3.529-1.367a2.58,2.58,0,0,0,.628-1.94,3.4,3.4,0,0,0-.24-1.885c-.406-.794-19.658-20.156-20.766-20.877-.776-.5-.961-.536-2.605-.536s-1.829.037-2.605.536c-1.109.721-20.36,20.083-20.766,20.877a3.4,3.4,0,0,0-.24,1.885,2.58,2.58,0,0,0,.628,1.94c.887,1.109,1.57,1.367,3.529,1.367h1.718v26.6H46.279l-.406-1.33a15.011,15.011,0,0,0-6.319-8.314l-.7-.406,1.164-.628a14.977,14.977,0,0,0,2.642-2.162,12.787,12.787,0,0,0,3.51-6.374l.314-1.478h.61a5.894,5.894,0,0,0,4.877-3.64,7.167,7.167,0,0,0-.148-4.9l-.425-.868.462-1.884a19.726,19.726,0,0,0,.222-7.556,16.452,16.452,0,0,0-3.658-7.3,90.8,90.8,0,0,0-7.8-6.743A3.614,3.614,0,0,0,39.683-505.52Zm46.872,12.766c5.469,5.469,9.94,10.069,9.94,10.235,0,.443-.536.536-3.27.536H90.767l-.037,16.24-.055,16.221-1.423-1.127-1.441-1.127v-1.663c-.018-1.9-.314-2.79-1.312-3.732-1.127-1.053-1.626-1.164-5.524-1.164h-3.51v-16.258H74.509v16.258H71c-3.9,0-4.4.111-5.524,1.164-1,.942-1.293,1.829-1.312,3.732v1.663l-1.441,1.127L61.3-449.521l-.055-16.221-.037-16.24H58.75c-2.734,0-3.27-.092-3.27-.536,0-.166,4.471-4.767,9.94-10.235,9.293-9.275,9.977-9.921,10.568-9.921S77.262-502.028,86.555-492.753ZM43.12-499.811c2.79,2.383,3.935,3.7,4.9,5.709a11.638,11.638,0,0,1,1.127,6.171,12.775,12.775,0,0,1-.314,2.753c-.185.536-.259.573-.665.406a3.994,3.994,0,0,0-1.109-.166h-.628v-2.827c0-3.159-.185-3.806-1.312-4.877a4.254,4.254,0,0,0-3.307-1.164H40.515v2.956h.647c1.533,0,2.346.776,2.051,1.958-.185.739-.942.942-2.79.776-2.642-.222-4.12-.739-9.219-3.252l-4.8-2.346H24.275c-2.069,0-2.18.018-3.326.61a8.092,8.092,0,0,0-3.436,3.473,5.975,5.975,0,0,0-.61,2.882l-.074,1.811H16.2a3.832,3.832,0,0,0-1.072.166c-.406.166-.48.129-.684-.406a15.466,15.466,0,0,1-.3-2.845,8.464,8.464,0,0,1,.314-3.6,10.444,10.444,0,0,1,2.531-4.4,10.568,10.568,0,0,1,4.674-3.011c1.552-.554,1.607-.554,7.113-.684,5.265-.129,5.616-.166,7.187-.628.887-.277,2.217-.776,2.956-1.109a10.051,10.051,0,0,1,1.441-.61C40.459-502.046,41.679-501.03,43.12-499.811ZM29.836-488.522c6.023,2.993,8.314,3.677,11.953,3.547l1.718-.055-.092,6c-.092,6.263-.148,6.8-1,8.683a11.215,11.215,0,0,1-5.136,5.081c-1.607.721-2.808.905-5.635.905a20.577,20.577,0,0,1-3.7-.24,10.443,10.443,0,0,1-7.723-7.686c-.129-.573-.222-3.6-.259-7.944-.037-7.8-.037-7.815,1.2-9.127a4.167,4.167,0,0,1,3.215-1.312C25.476-490.666,25.716-490.573,29.836-488.522Zm-12.97,9.5c0,2.753,0,2.771-.406,2.771a2.8,2.8,0,0,1-2.365-2.771A2.8,2.8,0,0,1,16.46-481.8C16.866-481.8,16.866-481.779,16.866-479.026Zm31-2.4a2.8,2.8,0,0,1,1.33,2.4,2.8,2.8,0,0,1-1.33,2.4c-1.238.739-1.256.7-1.256-2.4S46.63-482.167,47.868-481.428ZM33.55-461.013c.961.129,1.035.277.5,1.164a2.834,2.834,0,0,1-3.9.905c-.628-.425-1.46-1.681-1.238-1.884a11.5,11.5,0,0,1,3.2-.333C32.423-461.142,33.051-461.068,33.55-461.013Zm-6.134,3.954a4.971,4.971,0,0,0,4.231,1.589,4.978,4.978,0,0,0,2.623-.425,6.489,6.489,0,0,0,2.79-2.845l.443-.924,1.182.905a12.24,12.24,0,0,1,4.138,5.82l.129.517H20.34l.129-.517a12.24,12.24,0,0,1,4.138-5.82l1.182-.905.443.924A7.087,7.087,0,0,0,27.416-457.059Zm56.4,1.94a2.028,2.028,0,0,1,1.035,2.069v.628H67.119v-.628a2.1,2.1,0,0,1,1-2.069C68.967-455.489,82.934-455.489,83.821-455.119Zm-25.57,7.131v1.478h-47.3v-.628a2.1,2.1,0,0,1,1-2.069c.462-.2,4.6-.24,23.445-.259H58.251Zm28.378-.684a18.088,18.088,0,0,1,6.3,9.127c.462,1.5.5,1.866.5,4.859s-.037,3.362-.5,4.859a17.93,17.93,0,0,1-8.683,10.66,16.717,16.717,0,0,1-8.443,2.051,17.617,17.617,0,0,1-16.72-12.674,20.7,20.7,0,0,1-.462-7.778,17.759,17.759,0,0,1,6.725-11.1l1.072-.794h19.14Zm-29.875,6.078a12.146,12.146,0,0,0-.517,1.441l-.129.462-22.577.055-22.577.037v-2.956H57.142Zm-1.349,8.24a15.756,15.756,0,0,0,.406,4.693,21.68,21.68,0,0,0,4.286,8.369c1.182,1.386,1.349,1.958.905,3.233-.425,1.164.905,1.108-24.886,1.108-17.016,0-23.611-.055-24.055-.2-1.109-.388-1.109-.406-1.109-10.974v-9.515H55.387Z" fill="#c90d41"/>
      <path id="Path_29" data-name="Path 29" d="M368-381.783v2.217h2.956V-384H368Z" transform="translate(-293.491 -99.46)" fill="#c90d41"/>
      <path id="Path_30" data-name="Path 30" d="M336.609-374.891l-1.109,1.109,1.626,1.626,1.607,1.607,1.146-1.164,1.164-1.145-1.57-1.57a17.332,17.332,0,0,0-1.663-1.57A10.614,10.614,0,0,0,336.609-374.891Z" transform="translate(-266.995 -105.982)" fill="#c90d41"/>
      <path id="Path_31" data-name="Path 31" d="M388.515-374.467A10.414,10.414,0,0,0,387-372.748a8.6,8.6,0,0,0,2.143,2.106,12.778,12.778,0,0,0,1.737-1.57l1.552-1.57-1.09-1.109a10.622,10.622,0,0,0-1.2-1.109A19.328,19.328,0,0,0,388.515-374.467Z" transform="translate(-308.98 -105.982)" fill="#c90d41"/>
      <path id="Path_32" data-name="Path 32" d="M328-342.522v1.478h4.434V-344H328Z" transform="translate(-260.881 -132.07)" fill="#c90d41"/>
      <path id="Path_33" data-name="Path 33" d="M400-342.522v1.478h4.434V-344H400Z" transform="translate(-319.579 -132.07)" fill="#c90d41"/>
      <path id="Path_34" data-name="Path 34" d="M337.07-323.43l-1.57,1.57,1.164,1.145,1.146,1.164,1.607-1.607,1.626-1.626-1.109-1.109a10.614,10.614,0,0,0-1.2-1.109A17.336,17.336,0,0,0,337.07-323.43Z" transform="translate(-266.995 -147.56)" fill="#c90d41"/>
      <path id="Path_35" data-name="Path 35" d="M387.961-324.021a4.766,4.766,0,0,0-.961,1.164,11.666,11.666,0,0,0,1.57,1.737l1.57,1.57,1.145-1.164,1.164-1.145-1.57-1.57a10.465,10.465,0,0,0-1.755-1.57A5.068,5.068,0,0,0,387.961-324.021Z" transform="translate(-308.98 -147.56)" fill="#c90d41"/>
      <path id="Path_36" data-name="Path 36" d="M88.537-383.446a4.686,4.686,0,0,1-2.734,3.64c-.333.148-.591.351-.536.48.037.129.259.776.48,1.46a3.378,3.378,0,0,0,.591,1.256,7.458,7.458,0,0,0,1.238-.536,7.672,7.672,0,0,0,4.046-5.727L91.733-384h-3.2Z" transform="translate(-62.987 -99.46)" fill="#c90d41"/>
      <path id="Path_37" data-name="Path 37" d="M151.811-382.873a7.672,7.672,0,0,0,4.046,5.727,7.458,7.458,0,0,0,1.238.536,3.377,3.377,0,0,0,.591-1.256c.222-.684.443-1.33.48-1.46.055-.129-.2-.333-.536-.48a4.686,4.686,0,0,1-2.734-3.64V-384h-3.2Z" transform="translate(-117.153 -99.46)" fill="#c90d41"/>
      <path id="Path_38" data-name="Path 38" d="M107.407-327.52a6.98,6.98,0,0,0-2.956,2.679l-.351.647,1.4.7a9.2,9.2,0,0,0,1.423.628,3.557,3.557,0,0,1,3.067-2,3.557,3.557,0,0,1,3.067,2,9.2,9.2,0,0,0,1.423-.628l1.4-.7-.351-.647a6.98,6.98,0,0,0-2.956-2.679,4.983,4.983,0,0,0-2.587-.48A4.983,4.983,0,0,0,107.407-327.52Z" transform="translate(-78.347 -145.114)" fill="#c90d41"/>
      <path id="Path_39" data-name="Path 39" d="M348.434-166.522v1.478h-.591a4.436,4.436,0,0,0-3.547,2.623,5.794,5.794,0,0,0,.055,3.75,5.532,5.532,0,0,0,.961,1.33c1,.942,1.755,1.164,3.954,1.164,2.272,0,3.159.259,3.344,1,.333,1.349-.517,1.958-2.7,1.958-1.589,0-2.531-.351-2.7-1-.111-.462-.148-.48-1.663-.48H344v.591a4.38,4.38,0,0,0,3.88,3.843h.554v2.956h2.956v-2.956h.554a4.423,4.423,0,0,0,3.529-2.494,4.792,4.792,0,0,0,.351-1.94,4.145,4.145,0,0,0-1.312-3.27c-1-.942-1.755-1.164-3.954-1.164-2.272,0-3.159-.259-3.344-1-.333-1.349.517-1.958,2.7-1.958,1.589,0,2.531.351,2.7,1,.111.462.148.48,1.663.48h1.552v-.554a4.379,4.379,0,0,0-3.824-3.88h-.61V-168h-2.956Z" transform="translate(-273.925 -275.554)" fill="#c90d41"/>
      <path id="Path_40" data-name="Path 40" d="M437.617-145.181c-.942.314-1.33.536-1.256.721a13.294,13.294,0,0,1,.333,1.367l.222,1.127,1.127-.111c1.774-.185,1.94-.24,1.921-.7a7.992,7.992,0,0,0-.813-2.827A8,8,0,0,0,437.617-145.181Z" transform="translate(-349.215 -293.81)" fill="#c90d41"/>
      <path id="Path_41" data-name="Path 41" d="M436.6-112.121c-.111.536-.259,1.164-.314,1.367-.092.351.037.462.924.794,1.958.721,1.9.739,2.217-.388.148-.536.333-1.275.388-1.644.148-.757.314-.684-2.143-1l-.85-.111Z" transform="translate(-349.142 -320.311)" fill="#c90d41"/>
      <path id="Path_42" data-name="Path 42" d="M421.875-85.5a9.684,9.684,0,0,1-.794,1.035l-.48.517,1.127,1.127,1.127,1.127.628-.7a9.465,9.465,0,0,0,1.441-1.958A11.13,11.13,0,0,0,422.355-86C422.263-86,422.041-85.778,421.875-85.5Z" transform="translate(-336.373 -342.404)" fill="#c90d41"/>
      <path id="Path_43" data-name="Path 43" d="M40-118.522v1.478H54.78V-120H40Z" transform="translate(-26.09 -314.685)" fill="#c90d41"/>
      <path id="Path_44" data-name="Path 44" d="M40-86.522v1.478H54.78V-88H40Z" transform="translate(-26.09 -340.773)" fill="#c90d41"/>
      <path id="Path_45" data-name="Path 45" d="M40-54.522v1.478h2.956V-56H40Z" transform="translate(-26.09 -366.861)" fill="#c90d41"/>
      <path id="Path_46" data-name="Path 46" d="M72-54.522v1.478h2.956V-56H72Z" transform="translate(-52.178 -366.861)" fill="#c90d41"/>
      <path id="Path_47" data-name="Path 47" d="M104-54.522v1.478h2.956V-56H104Z" transform="translate(-78.265 -366.861)" fill="#c90d41"/>
    </g>
    <path id="Rectangle_10" data-name="Rectangle 10" d="M2.5,0H49a0,0,0,0,1,0,0V4a0,0,0,0,1,0,0H0A0,0,0,0,1,0,4V2.5A2.5,2.5,0,0,1,2.5,0Z" transform="translate(985 146)" fill="#fac040"/>
  </g>
</svg>
