<svg xmlns="http://www.w3.org/2000/svg" width="112.47" height="112.47" viewBox="0 0 112.47 112.47">
  <g id="licensehelped" transform="translate(-667 -308)">
    <rect id="Rectangle_11" data-name="Rectangle 11" width="112.47" height="112.47" transform="translate(667 308)" fill="#fff"/>
    <g id="support" transform="translate(645.395 825)">
      <path id="Path_48" data-name="Path 48" d="M72.736-511.6c-15.025,2.3-26.22,12.487-28.477,25.911-.16.876-.251,4.93-.251,10.083,0,8.209.023,8.657.479,9.533a5.809,5.809,0,0,0,2.85,2.872l1.231.631v1.854a5.081,5.081,0,0,0,.547,2.913,6.743,6.743,0,0,0,6.338,3.544h1.733l.935,1.528a27.375,27.375,0,0,0,2.417,3.157l1.482,1.63L60.1-444.518l-1.915,3.4-6.11,1.813c-9.188,2.73-12.517,4.42-16.963,8.617a28.575,28.575,0,0,0-9.279,19.209l-.137,2.75.638.55.638.57H129.438l.638-.57.638-.55-.137-2.75a28.575,28.575,0,0,0-9.279-19.209c-4.446-4.2-7.775-5.887-16.963-8.617l-6.11-1.813-1.915-3.422-1.915-3.4,1.094-1.2a21.579,21.579,0,0,0,5.495-10.572l.593-2.689h2.85c2.508,0,2.987-.061,4.013-.489a6.79,6.79,0,0,0,3.42-3.055l.547-1.039V-475.6c0-5.133-.091-9.207-.251-10.083A29.213,29.213,0,0,0,102.74-502.7a35.73,35.73,0,0,0-19.676-8.983A56.416,56.416,0,0,0,72.736-511.6Zm10.4,4.278c11.582,1.813,20.793,9.492,23.689,19.759.274,1,.593,2.363.684,2.994l.137,1.182h-4.286l-.137-1.793a19.259,19.259,0,0,0-3.716-9.452,23.8,23.8,0,0,0-12.973-8.454c-2.029-.55-2.143-.57-8.322-.57s-6.293.02-8.322.57a23.8,23.8,0,0,0-12.973,8.454,19.259,19.259,0,0,0-3.716,9.452l-.137,1.793h-2.12c-1.573,0-2.143-.061-2.143-.265a27.368,27.368,0,0,1,2.782-8.942,24.381,24.381,0,0,1,5.859-7.313,30.52,30.52,0,0,1,16.894-7.578A51.332,51.332,0,0,1,83.132-507.319Zm1.094,8.168a25.978,25.978,0,0,1,7.478,3.218,17.556,17.556,0,0,1,6.338,8.963c.547,1.976.638,5.418.137,5.418-.16,0-1.5-.183-2.964-.407a39.291,39.291,0,0,1-18.6-8.066l-1.938-1.569-2.508.122a20.886,20.886,0,0,0-12.95,5.154c-1.5,1.324-1.482,1.365-.57-1.446,2.029-6.315,8.413-11.02,15.891-11.733A49.973,49.973,0,0,1,84.227-499.151Zm-10.9,12.324a41.153,41.153,0,0,0,6.566,4.339A45.626,45.626,0,0,0,94.6-477.7c1.55.245,3.078.428,3.374.428.524,0,.547.061.433.754-.068.428-.182,1.731-.251,2.913a102.2,102.2,0,0,1-2.189,14.361,21.464,21.464,0,0,1-3.922,7.028,18.327,18.327,0,0,1-13.611,5.948,17.721,17.721,0,0,1-9.69-2.444A21.514,21.514,0,0,1,63.41-453.3l-.73-.957H66.99l.707,1.1a6.023,6.023,0,0,0,3.215,2.546c.912.367,1.5.428,5.016.428,3.716,0,4.058-.041,5.153-.489a5.91,5.91,0,0,0,3.967-5.622,5.91,5.91,0,0,0-3.967-5.622c-1.094-.448-1.436-.489-5.153-.489-3.511,0-4.1.061-5.016.428a6.024,6.024,0,0,0-3.215,2.546l-.707,1.1H60.675l-.251-.794c-.684-2.281-1.892-10.918-2.394-17.131l-.137-1.752,1.8-2.118c3.329-3.952,6.087-5.826,9.872-6.722C71.846-487.377,72.781-487.356,73.328-486.827ZM53.219-476.622c.16,2.669.707,8.474.935,9.615l.114.57-2.006-.081c-3.6-.163-3.557-.081-3.648-7.15l-.068-5.643h4.514Zm54.582,2.954c-.091,7.068-.046,6.987-3.648,7.15l-2.006.081.114-.57c.205-1.141.775-6.926.935-9.615l.137-2.689h4.537ZM55.134-461.038c.137.774.319,1.67.41,2.017.137.611.091.631-.456.55-1.254-.224-1.961-1.344-1.961-3.137,0-.794,0-.794.889-.794h.866Zm23.278,2.831c2.44.448,2.44,3.381,0,3.83a25.326,25.326,0,0,1-4.97,0c-1.733-.326-2.462-2.118-1.254-3.2a2.685,2.685,0,0,1,1.072-.611A33.489,33.489,0,0,1,78.413-458.207Zm15.276,19.046a55.952,55.952,0,0,1-3.488,7.822l-1.3,2.424-3.739-3.341L81.4-435.6l.752-.733c.41-.387,2.531-2.4,4.72-4.441l3.967-3.748,1.414,2.526A16.89,16.89,0,0,1,93.688-439.161Zm-23.757-.387,4.606,4.135-3.511,3.259-3.488,3.259-1.3-2.444A62.025,62.025,0,0,1,62.7-439.12a29.235,29.235,0,0,1,2.508-4.542C65.28-443.663,67.4-441.809,69.931-439.548Zm8.55-2.424h2.9l-1.619,1.548c-.889.855-1.664,1.568-1.756,1.609a15.771,15.771,0,0,1-2.075-1.711c-1.892-1.711-1.915-1.752-1.14-1.589A34.077,34.077,0,0,0,78.481-441.972Zm-18.855,7.924c2.44,5.479,5.745,10.837,11.081,17.926,1.208,1.609,2.417,3.259,2.69,3.667l.524.774H52.239c-18.194,0-21.682-.041-21.682-.285a30.574,30.574,0,0,1,1.277-5.459,27.173,27.173,0,0,1,13.429-14.951,124.112,124.112,0,0,1,12.9-4.135C58.417-436.533,58.851-435.78,59.626-434.048Zm44.254-.856a72.354,72.354,0,0,1,7.159,2.485,27.122,27.122,0,0,1,13.543,14.992,30.575,30.575,0,0,1,1.277,5.459c0,.245-3.488.285-21.682.285H82.494l.524-.774c.274-.407,1.482-2.057,2.69-3.667,5.267-6.987,8.709-12.548,11.081-17.926a9.7,9.7,0,0,1,1.368-2.485C98.294-436.533,100.87-435.8,103.88-434.9ZM82.2-428.589l4.1,3.667-.41.672c-.228.367-1.231,1.731-2.212,3.015s-2.6,3.443-3.557,4.807a22.237,22.237,0,0,1-1.892,2.506,24.061,24.061,0,0,1-1.915-2.506c-.98-1.365-2.759-3.768-3.944-5.317a23.478,23.478,0,0,1-2.143-3.1,104.6,104.6,0,0,1,7.729-7.415C78.025-432.256,79.94-430.606,82.2-428.589Z" transform="translate(0 0)" fill="#c90d41"/>
      <path id="Path_49" data-name="Path 49" d="M356.633-115.5a2.065,2.065,0,0,0-.633,1.8,2.065,2.065,0,0,0,.633,1.8,2.065,2.065,0,0,0,1.8.633,2.165,2.165,0,0,0,2.434-2.434,2.065,2.065,0,0,0-.633-1.8A2.74,2.74,0,0,0,356.633-115.5Z" transform="translate(-255.225 -315.743)" fill="#c90d41"/>
      <path id="Path_50" data-name="Path 50" d="M391.706-96.329A2.018,2.018,0,0,0,391-94.6c0,.974.146,1.169,2.045,3.14a18.844,18.844,0,0,1,3.919,4.844c1,1.7,1.388,2,2.8,2a2.436,2.436,0,0,0,2.434-2.313c0-1.972-4.455-7.985-7.181-9.665A2.658,2.658,0,0,0,391.706-96.329Z" transform="translate(-283.485 -334.187)" fill="#c90d41"/>
    </g>
    <path id="Path_51" data-name="Path 51" d="M703.941,389.235A198.9,198.9,0,0,0,720.1,413.361H675.938v-.922l.2-.937.223-1.026.357-1.2.268-.893.312-1.071.357-.893.357-.848.446-.893.491-.893.4-.716.422-.634.238-.475.317-.449.264-.343.317-.422.343-.449.343-.475.475-.555.343-.4.555-.555.555-.581.5-.449.5-.475.528-.475.317-.264.343-.238.185-.211.4-.317.607-.343.423-.317.4-.264.4-.317.422-.238.5-.317.4-.211.871-.449.766-.4.687-.238.4-.185.449-.158.581-.185.66-.211,1-.37,1.215-.422,1.135-.317,1.505-.5,1.426-.4,2.482-.766.555-.132.4-.132.374.264.18.37.475.792.607,1.452Z" fill="#fac040"/>
    <path id="Path_52" data-name="Path 52" d="M698.482,345.7l.163,3.291.162,1.686.122,1.219.087,1.093v.609l.078.453.078.469v.469l.078.547v.516l.094.641.109.75.063.438.125.563v.141h-1.75l-.625-.078-.562-.062h-.828l-.125-.094h-.328l-.359-.219-.219-.141-.109-.109-.172-.156-.094-.2-.109-.375-.109-.359v-.3l-.125-.359v-1.141l-.078-1.484-.078-1.281V345.7Z" fill="#fac040"/>
    <path id="Path_53" data-name="Path 53" d="M748.739,345.719h4.57v4.489l-.122.406v4l-.1,1.32-.1.752-.122.467-.264.488-.386.345-.264.244-.609.142-1.239.1h-1.666l-.934.1.2-1.077.2-1.341.1-.975.508-5.891.142-2.052.081-1.2Z" fill="#fac040"/>
    <path id="Path_54" data-name="Path 54" d="M716.969,368.594V369l.094.3.172.281.219.3.234.234.375.2.406.234.469.094.781.078h2.875l.922-.078.625-.094.422-.172.438-.266.422-.531.25-.656V368.5l-.172-.547-.234-.328-.266-.312-.437-.266-.422-.156-.3-.109-.328-.078-4.859.078-.312.109-.281.156-.266.172-.25.188-.312.313-.172.328-.094.313Z" fill="#fac040"/>
  </g>
</svg>
