<svg xmlns="http://www.w3.org/2000/svg" width="112.47" height="112.47" viewBox="0 0 112.47 112.47">
  <g id="revenueshoplicense" transform="translate(-928.217 -81.325)">
    <rect id="Rectangle_7" data-name="Rectangle 7" width="112.47" height="112.47" transform="translate(928.217 81.325)" fill="#fff"/>
    <g id="investment" transform="translate(934.394 601.742)">
      <path id="Path_26" data-name="Path 26" d="M21.2-511.6c-.723.371-2.15,2.13-10.632,13.153-5.394,7-10.007,13.075-10.261,13.505a4.514,4.514,0,0,0,.86,5.218c1.075,1.036,1.642,1.134,6.117,1.134h4.1v21.733c0,11.961.059,22.085.117,22.5a5.364,5.364,0,0,0,4.4,4.124l1,.137-.117.723c-.059.391-.176,2.482-.254,4.632-.117,4.3.02,5.336,1.036,7.407a10.28,10.28,0,0,0,5.883,5c1.251.391,1.779.391,26.444.391s25.193,0,26.444-.391a10.107,10.107,0,0,0,5.824-4.945c1.075-2.111,1.212-3.108,1.094-7.466-.078-2.15-.2-4.241-.254-4.632l-.117-.723,1-.137a5.364,5.364,0,0,0,4.4-4.124c.059-.41.117-10.534.117-22.5v-21.733h4.1c4.476,0,5.042-.1,6.117-1.134a4.514,4.514,0,0,0,.86-5.218c-.254-.43-4.867-6.508-10.261-13.505-10.886-14.15-10.339-13.564-12.645-13.564-2.248,0-1.974-.293-10.476,10.749-8.7,11.3-8.345,10.964-9.792,9.674-3.205-2.912-9.42-2.912-12.8,0-1.485,1.27-1.114,1.622-9.811-9.674-6.606-8.58-7.779-9.987-8.482-10.339A5.094,5.094,0,0,0,21.2-511.6Zm9.147,11.883,6.665,8.678-.586.254a7.843,7.843,0,0,0-2.756,2.619,4.8,4.8,0,0,0,.293,4.964l.665,1.094h-.879c-.977,0-1.915.391-2.111.879-.059.176-.117,4.573-.117,9.772V-462l-.8.645a40.448,40.448,0,0,0-5.707,6.821,47.67,47.67,0,0,0-5.8,12.489,56.276,56.276,0,0,0-1.759,7.8c0,.567-.41.684-1.27.41-1.349-.45-1.27,1.134-1.27-24.274-.02-17.707-.059-23-.254-23.238-.528-.7-1.016-.762-5.961-.762-4.182,0-4.906-.039-5.121-.313a.632.632,0,0,1-.078-.743c.1-.254,4.5-6.059,9.753-12.9,7.994-10.4,9.655-12.43,10.007-12.391C23.565-508.418,25.539-505.975,30.347-499.721Zm56.307,3.831c5.3,6.88,9.655,12.665,9.714,12.86a.822.822,0,0,1-.156.625c-.2.254-1.036.293-5.121.293-4.945,0-5.433.059-5.961.762-.2.235-.235,5.531-.254,23.238,0,25.408.078,23.825-1.27,24.274-.86.274-1.27.156-1.27-.41a48.342,48.342,0,0,0-1.5-6.821,44.369,44.369,0,0,0-10.691-19.095l-1.876-1.954v-9.4c0-5.16-.059-9.538-.117-9.714-.2-.489-1.134-.879-2.111-.879h-.879l.665-1.094a4.8,4.8,0,0,0,.293-4.964,7.843,7.843,0,0,0-2.756-2.619l-.586-.254,6.7-8.717c5.59-7.29,6.782-8.736,7.134-8.7C76.921-508.418,79.618-505.056,86.654-495.89Zm-34.046,6.156a6.675,6.675,0,0,1,2.052,1.583c1.192,1.29,1.739,1.446,3.166.821a11.615,11.615,0,0,1,1.544-.469c2.111-.41,4.3,1.055,3.6,2.4-.117.254-1.818,2.58-3.772,5.179l-3.538,4.749H44.126l-3.264-4.358c-3.713-4.964-4.261-5.766-4.261-6.117a2.749,2.749,0,0,1,.586-.938c1-1.114,3.166-1.309,4.867-.41a3.568,3.568,0,0,0,1.309.293c.606,0,.84-.156,1.72-1.094a5.75,5.75,0,0,1,5.238-2.13A8.027,8.027,0,0,1,52.608-489.734ZM38.79-476.6l1.485,1.994-.821.919a4.977,4.977,0,0,0-.821,5.512l.45.919-1.388.782c-.762.43-1.681.958-2.013,1.192l-.645.41v-13.72H37.3Zm25.955,4.867c0,3.772-.059,6.821-.156,6.782-.137-.059-2.6-1.5-3.5-2.052l-.43-.254.391-.684a5.971,5.971,0,0,0,.371-3.909,5.233,5.233,0,0,0-1.075-1.818l-.84-.938,1.485-1.994,1.485-1.994h2.267Zm-7.251.293a1.32,1.32,0,0,1,.117,2.13l-.469.489H42.64l-.469-.489a1.32,1.32,0,0,1,.117-2.13l.606-.508H56.888Zm1.8,7.544c12.645,6.332,20.248,21.167,20.385,39.734.02,3.792,0,3.948-.469,4.886a7.3,7.3,0,0,1-3.577,3.381l-1.134.43H25.285l-1.134-.43a7.3,7.3,0,0,1-3.577-3.381c-.469-.938-.489-1.114-.469-4.886.02-2.287.156-5,.352-6.547,2.072-16.945,9.831-28.984,22.007-34.124,1.055-.45,1.153-.469,7.642-.41l6.547.039Z" transform="translate(0)" fill="#c90d41"/>
      <path id="Path_27" data-name="Path 27" d="M220.2-230.433c-.508.508-.567.7-.567,1.739v1.173l-.723.254a8.666,8.666,0,0,0-5.746,6.117,9.245,9.245,0,0,0-.117,2.56,8,8,0,0,0,4.5,6.841,7.48,7.48,0,0,0,1.72.684c.352,0,.371.254.371,4.886,0,4.261-.039,4.886-.293,4.886a4.968,4.968,0,0,1-2.463-1.485c-.371-.391-.821-.88-1-1.075a1.5,1.5,0,0,0-1.134-.371,1.726,1.726,0,0,0-1.485,2.7,10.037,10.037,0,0,0,5.57,3.85l.8.137v1.173c0,1.036.059,1.231.567,1.739a1.529,1.529,0,0,0,2.384,0c.508-.508.567-.7.567-1.739v-1.173l.9-.313a8.561,8.561,0,0,0,5.023-4.573c.586-1.231.625-1.446.625-3.459s-.039-2.228-.606-3.44a8.412,8.412,0,0,0-4.827-4.456l-1.016-.352-.059-4.925-.039-4.906.723.293a7,7,0,0,1,2.209,1.446,3.1,3.1,0,0,0,.567.762,1.805,1.805,0,0,0,2.658.137c.938-.919.586-2.091-1.055-3.713a8.369,8.369,0,0,0-4.026-2.267l-1.075-.235v-1.153c0-1.016-.078-1.231-.567-1.739a1.632,1.632,0,0,0-1.192-.567A1.632,1.632,0,0,0,220.2-230.433Zm-.645,15.616c-.2.2-1.407-.7-2.013-1.485a4.5,4.5,0,0,1-.567-4.827,5.8,5.8,0,0,1,2.169-2.4c.391-.2.391-.137.45,4.2C219.612-216.909,219.592-214.876,219.553-214.817Zm4.339,4.808a4.815,4.815,0,0,1,1.994,5.941,6.2,6.2,0,0,1-2.326,2.58l-.41.215v-4.515c0-2.463.039-4.5.1-4.5A2.531,2.531,0,0,1,223.892-210.009Z" transform="translate(-171.499 -226.094)" fill="#c90d41"/>
    </g>
    <rect id="Rectangle_8" data-name="Rectangle 8" width="17" height="5" rx="2.5" transform="translate(976 129)" fill="#fac040"/>
  </g>
</svg>
