<svg xmlns="http://www.w3.org/2000/svg" width="112.47" height="112.47" viewBox="0 0 112.47 112.47">
  <g id="Revenuecollected" transform="translate(-812 -199)">
    <rect id="Rectangle_5" data-name="Rectangle 5" width="112.47" height="112.47" transform="translate(812 199)" fill="#fff"/>
    <g id="revenue" transform="translate(815.412 700.792)">
      <path id="Path_20" data-name="Path 20" d="M21.079-493.7a25.6,25.6,0,0,0-5.379,1.06,22.569,22.569,0,0,0-14.606,15.45c-.471,1.747-.51,2.218-.51,5.732-.02,3.593.02,3.946.53,5.791a22.867,22.867,0,0,0,6.262,10.424,20.217,20.217,0,0,0,5.713,3.907,22.279,22.279,0,0,0,25.265-4.2,24.821,24.821,0,0,0,3.966-5.222,4.744,4.744,0,0,1,.667-.982c.137-.1,3.573-3.1,7.637-6.655l7.4-6.459,9.639,4.751c5.32,2.611,9.816,4.731,9.992,4.731a2.225,2.225,0,0,0,.628-.118c.177-.059,4.5-4.456,9.6-9.757l9.266-9.639.1,1.512c.118,1.786.412,2.2,1.57,2.2,1.394,0,1.59-.393,1.885-3.769.393-4.319.353-5.477-.118-5.948-.51-.51-1.1-.491-5.359.02-3.907.471-4.26.648-4.26,2.042,0,1.355.766,1.767,2.729,1.512l1.217-.177-.962,1c-4.829,5.045-16.078,16.785-16.333,17.06-.294.334-.8.1-9.855-4.378-5.242-2.591-9.717-4.711-9.953-4.711a2.149,2.149,0,0,0-.844.216c-.314.177-9.07,7.7-11.681,10.051l-.452.393.137-2.159A22.234,22.234,0,0,0,24.79-493.637,14.009,14.009,0,0,0,21.079-493.7Zm6.184,3.887a19.182,19.182,0,0,1,13.879,13.958,21.065,21.065,0,0,1-.079,9.129,19.236,19.236,0,0,1-5.438,9.05,15.958,15.958,0,0,1-5.006,3.416,18.9,18.9,0,0,1-24.245-7.578,16.992,16.992,0,0,1-2.513-8.7,17.506,17.506,0,0,1,.8-6.773,19.293,19.293,0,0,1,16.412-13.074A22.594,22.594,0,0,1,27.263-489.809Z" fill="#c90d41"/>
      <path id="Path_21" data-name="Path 21" d="M78.165-454.513c-.412.393-.491.667-.491,1.551,0,1.04-.02,1.08-.628,1.2a6.536,6.536,0,0,0-5.222,5.889,5.717,5.717,0,0,0,.923,3.867c1.08,1.688,2.788,2.591,6.262,3.318,3.651.746,5.143,1.865,5.143,3.887a2.854,2.854,0,0,1-1.845,2.415,8.071,8.071,0,0,1-5.026.255,4.886,4.886,0,0,1-2.945-2.827,1.67,1.67,0,0,0-1.728-1.394,1.643,1.643,0,0,0-1.61,1.61,6.846,6.846,0,0,0,2.1,3.907,7.645,7.645,0,0,0,3.4,1.963l1.08.334.1,1.119c.118,1.315.628,1.865,1.688,1.865,1.08,0,1.57-.667,1.688-2.336.059-.628.118-.687,1.08-.923,3.2-.824,5.1-2.788,5.32-5.5a6.5,6.5,0,0,0-4.437-6.753,30.225,30.225,0,0,0-3.22-.883c-3.082-.687-4.28-1.394-4.653-2.788-.412-1.492.687-3.082,2.552-3.691a5.046,5.046,0,0,1,6.066,2.454A1.685,1.685,0,0,0,87-446.229c.432-1.688-2.827-5.045-5.418-5.575-.53-.1-.569-.157-.569-1.08a1.75,1.75,0,0,0-.569-1.551A1.49,1.49,0,0,0,78.165-454.513Z" transform="translate(-56.595 -31.173)" fill="#c90d41"/>
      <path id="Path_22" data-name="Path 22" d="M432-355.666a3.573,3.573,0,0,0-1.806,2.179c-.118.491-.2,10.7-.2,30.762,0,28.72.02,30.075.373,30.821a3.769,3.769,0,0,0,2.415,2.061,36.959,36.959,0,0,0,5.83.157c5.615-.059,5.791-.1,6.832-1.472l.55-.707.059-30.8c.039-30.487.039-30.8-.353-31.567a3.337,3.337,0,0,0-1.237-1.276L443.6-356h-5.477C433.494-356,432.552-355.941,432-355.666Zm10.836,3.318c.059.177.118,13.487.118,29.623,0,24.618-.039,29.329-.275,29.525-.177.157-1.61.216-4.751.177l-4.5-.059-.059-29.545c-.02-16.255,0-29.663.059-29.8.059-.177,1.178-.236,4.692-.236C442.132-352.663,442.741-352.623,442.839-352.349Z" transform="translate(-345.119 -110.742)" fill="#c90d41"/>
      <path id="Path_23" data-name="Path 23" d="M190.646-270.558a3.243,3.243,0,0,0-2.14,1.806c-.412.864-.412.864-.373,23.047l.059,22.164.53.8c.962,1.472,1.276,1.531,7.421,1.531h5.4l.923-.53a3.2,3.2,0,0,0,1.315-1.394l.412-.864-.039-22.183-.059-22.164-.53-.8c-.962-1.453-1.315-1.531-7.126-1.57A47.686,47.686,0,0,0,190.646-270.558Zm10.11,24.618v21.4h-9.227l-.059-21.2c-.02-11.661,0-21.319.059-21.457.059-.2,1.1-.236,4.653-.2l4.574.059Z" transform="translate(-150.721 -179.282)" fill="#c90d41"/>
      <path id="Path_24" data-name="Path 24" d="M311.061-225.753a3.223,3.223,0,0,0-1.688,1.728c-.353.746-.373,1.728-.373,18.316,0,14.272.039,17.648.275,18.159a4.233,4.233,0,0,0,2.415,2.081,67.869,67.869,0,0,0,10.758,0,3.406,3.406,0,0,0,2.258-1.747c.373-.746.393-1.217.393-18.434,0-11.995-.059-17.845-.216-18.218A3.863,3.863,0,0,0,323-225.812C322.016-226.244,311.886-226.185,311.061-225.753Zm10.66,20.024-.059,17.04h-9.227l-.059-16.785c-.02-9.227,0-16.9.059-17.04.059-.177,1.2-.236,4.712-.236h4.613Z" transform="translate(-247.873 -215.135)" fill="#c90d41"/>
      <path id="Path_25" data-name="Path 25" d="M69.67-160.555a3.364,3.364,0,0,0-2.277,1.747c-.373.746-.393,1.2-.393,12.073s.02,11.327.393,12.073a3.406,3.406,0,0,0,2.258,1.747,67.869,67.869,0,0,0,10.758,0,3.962,3.962,0,0,0,2.454-2.3c.177-.55.236-3.907.236-11.6,0-11.681,0-11.622-1.04-12.741-1-1.08-1.237-1.119-6.616-1.158A55.966,55.966,0,0,0,69.67-160.555Zm9.855,3.278c.2.137.236,2.4.2,10.66l-.059,10.483H70.435l-.059-10.4c-.02-5.732,0-10.522.059-10.66.059-.177,1.139-.236,4.456-.236A39.84,39.84,0,0,1,79.525-157.277Z" transform="translate(-53.38 -267.69)" fill="#c90d41"/>
    </g>
    <rect id="Rectangle_6" data-name="Rectangle 6" width="10" height="44" transform="translate(856 254)" fill="#fac040"/>
  </g>
</svg>
