<svg xmlns="http://www.w3.org/2000/svg" width="112.47" height="112.47" viewBox="0 0 112.47 112.47">
  <g id="ShopRenewal" transform="translate(-239 -385)">
    <g id="RevenueStatistics" transform="translate(104 44)">
      <rect id="Rectangle_19" data-name="Rectangle 19" width="112.47" height="112.47" transform="translate(135 341)" fill="#fff"/>
      <g id="shop" transform="translate(119 876.005)">
        <path id="Path_146" data-name="Path 146" d="M32.968-495.709a4.64,4.64,0,0,0-1.116.806c-.992,1.038-.976.945-.976,8.848,0,8-.015,7.856,1.1,8.91.961.914,1.3.976,5.253.976h3.564v2.479H32.456c-6.431,0-8.4.046-8.585.186-.139.108-1.7,2.495-3.456,5.315l-3.192,5.114.046,2.4c.046,2.247.077,2.464.465,3.254a6.421,6.421,0,0,0,3.734,3.332l.651.186.046,12.427.031,12.412H20.463c-1.983,0-2.65.217-3.487,1.1-.821.883-.976,1.441-.976,3.7,0,1.813.031,2.045.31,2.324.31.31.511.31,36.88.31s36.57,0,36.88-.31c.279-.279.31-.511.31-2.324,0-2.262-.155-2.82-.976-3.7-.837-.883-1.5-1.1-3.487-1.1H84.181l.031-12.412.046-12.427.651-.186a6.421,6.421,0,0,0,3.734-3.332c.387-.79.418-1.007.465-3.254l.046-2.4-3.192-5.114c-1.751-2.82-3.316-5.207-3.456-5.315-.186-.139-2.154-.186-8.585-.186H65.586v-2.479H69.15c3.951,0,4.292-.062,5.253-.976,1.116-1.054,1.1-.9,1.1-8.941s.015-7.887-1.1-8.941c-1.1-1.038.356-.976-21.244-.976C34.424-496,33.557-495.988,32.968-495.709Zm39.126,2.355c.9.325.93.527.93,7.267s-.031,6.942-.93,7.267c-.728.248-37.081.248-37.809,0-.9-.325-.93-.527-.93-7.236a56.7,56.7,0,0,1,.17-6.539c.341-.961-.651-.914,19.6-.93C66.516-493.525,71.722-493.478,72.094-493.354ZM63.107-474.93v1.24H43.272v-2.479H63.107Zm-31.921,3.8c0,.047-.821,1.72-1.813,3.719l-1.828,3.641H20.819l2.324-3.719,2.34-3.719h2.851A25.364,25.364,0,0,1,31.186-471.133Zm8.817.341c-.093.248-.682,1.8-1.3,3.456s-1.178,3.146-1.24,3.285c-.108.248-.418.279-3.5.279-1.859,0-3.394-.031-3.394-.077s.821-1.72,1.813-3.719l1.828-3.641h5.966Zm7.918-.077c-.015.2-.2,1.859-.434,3.688l-.418,3.332-3.456.046-3.44.031.17-.418c.093-.248.682-1.8,1.3-3.456s1.178-3.146,1.24-3.3c.093-.232.372-.263,2.572-.263C47.905-471.211,47.921-471.211,47.921-470.87Zm8.244,3.068c.232,1.828.418,3.487.434,3.672v.356H53.189c-2.619,0-3.409-.047-3.409-.2,0-.294.79-6.834.868-7.05.046-.155.635-.186,2.572-.155l2.526.046Zm7.329-3.146c.062.155.62,1.643,1.24,3.3s1.209,3.208,1.3,3.456l.17.418-3.44-.031-3.456-.046-.418-3.332c-.232-1.828-.418-3.487-.434-3.688,0-.341.015-.341,2.464-.341C63.122-471.211,63.4-471.18,63.494-470.947ZM74-467.569c.992,2,1.813,3.672,1.813,3.719s-1.534.077-3.394.077c-3.084,0-3.394-.031-3.5-.279-.062-.139-.62-1.627-1.24-3.285s-1.209-3.208-1.3-3.456l-.17-.418h5.966Zm9.235.077,2.324,3.719H78.835l-1.828-3.641c-.992-2-1.813-3.672-1.813-3.719a25.364,25.364,0,0,1,2.851-.077H80.9Zm-56.141,7.221a4.026,4.026,0,0,1-1.069,2.681,3.6,3.6,0,0,1-5.857-.992,6.85,6.85,0,0,1-.387-1.674l-.108-1.038H27.2Zm9.917,0a4.026,4.026,0,0,1-1.069,2.681,3.6,3.6,0,0,1-5.857-.992,6.85,6.85,0,0,1-.387-1.674l-.108-1.038h7.531Zm9.917,0a4.026,4.026,0,0,1-1.069,2.681A3.6,3.6,0,0,1,40-458.582a6.85,6.85,0,0,1-.387-1.674l-.108-1.038h7.531Zm9.917,0a4.026,4.026,0,0,1-1.069,2.681,3.6,3.6,0,0,1-5.857-.992,6.85,6.85,0,0,1-.387-1.674l-.108-1.038h7.531Zm9.917,0a4.026,4.026,0,0,1-1.069,2.681,3.6,3.6,0,0,1-5.857-.992,6.85,6.85,0,0,1-.387-1.674l-.108-1.038h7.531Zm9.917,0a4.026,4.026,0,0,1-1.069,2.681,3.6,3.6,0,0,1-5.857-.992,6.85,6.85,0,0,1-.387-1.674l-.108-1.038h7.531Zm9.917,0a4.026,4.026,0,0,1-1.069,2.681,3.6,3.6,0,0,1-5.857-.992,6.85,6.85,0,0,1-.387-1.674l-.108-1.038h7.531ZM29.047-455.5a7.855,7.855,0,0,0,1.612,1.116,4.525,4.525,0,0,0,2.7.449,4.525,4.525,0,0,0,2.7-.449,7.194,7.194,0,0,0,1.581-1.1l.682-.651.682.651a7.194,7.194,0,0,0,1.581,1.1,4.525,4.525,0,0,0,2.7.449,4.525,4.525,0,0,0,2.7-.449,7.194,7.194,0,0,0,1.581-1.1l.682-.651.682.651a7.194,7.194,0,0,0,1.581,1.1,4.525,4.525,0,0,0,2.7.449,4.525,4.525,0,0,0,2.7-.449,7.194,7.194,0,0,0,1.581-1.1l.682-.651.682.651a7.194,7.194,0,0,0,1.581,1.1,4.525,4.525,0,0,0,2.7.449,4.525,4.525,0,0,0,2.7-.449,7.194,7.194,0,0,0,1.581-1.1l.682-.651.682.651a7.194,7.194,0,0,0,1.581,1.1,4.525,4.525,0,0,0,2.7.449,4.525,4.525,0,0,0,2.7-.449,7.354,7.354,0,0,0,1.6-1.116l.7-.666.372.449a7.021,7.021,0,0,0,2.588,1.627l.651.186.046,12.427.031,12.412H71.784v-8.569c0-9.545.031-9.22-1.1-10.289-1.1-1.038-.046-.976-17.495-.976s-16.394-.062-17.495.976c-1.131,1.069-1.1.744-1.1,10.289v8.569H24.678l.031-12.412.046-12.4.775-.263a6.4,6.4,0,0,0,2.51-1.658c.155-.2.279-.387.294-.387C28.334-456.18,28.66-455.87,29.047-455.5Zm22.9,17.758v8.678H37.074v-7.965a82.692,82.692,0,0,1,.17-8.461c.325-.9.418-.914,7.934-.93H51.95ZM68.437-446.2a1.137,1.137,0,0,1,.7.713,82.69,82.69,0,0,1,.17,8.461v7.965H54.429v-17.355H61.17C66.593-446.418,68.019-446.371,68.437-446.2ZM86.97-426.413a1.744,1.744,0,0,1,.93,1.766v.542H18.479v-.527a1.765,1.765,0,0,1,.837-1.736c.4-.17,6.105-.2,33.811-.217C77.611-426.584,86.6-426.537,86.97-426.413Z" transform="translate(0 -0.91)" fill="#c90d41"/>
        <path id="Path_147" data-name="Path 147" d="M154.066-471.661A3.544,3.544,0,0,0,152-468.247c.015,2.112,1.209,3.352,3.566,3.719a1.834,1.834,0,0,1,.888.4,1.091,1.091,0,0,1-.719,1.821c-.673,0-.964-.276-1.224-1.148-.26-.934-.52-1.148-1.347-1.148-.811,0-1.163.429-1.163,1.378a3.467,3.467,0,0,0,3.673,3.52,3.471,3.471,0,0,0,3.673-3.7c-.015-2.112-1.209-3.352-3.566-3.719a1.834,1.834,0,0,1-.888-.4,1.091,1.091,0,0,1,.719-1.821c.673,0,.964.276,1.224,1.148.26.934.52,1.148,1.347,1.148.811,0,1.163-.429,1.163-1.423a3.583,3.583,0,0,0-2.173-3.23A4.8,4.8,0,0,0,154.066-471.661Z" transform="translate(-115.184 -21.379)" fill="#c90d41"/>
        <path id="Path_148" data-name="Path 148" d="M208.306-471.694c-.291.291-.306.505-.306,5.816s.015,5.526.306,5.816a1.252,1.252,0,0,0,.918.306,1.252,1.252,0,0,0,.918-.306c.276-.276.306-.505.306-2.449v-2.143H212.9v2.143c0,1.944.031,2.173.306,2.449a1.252,1.252,0,0,0,.918.306,1.252,1.252,0,0,0,.918-.306c.291-.291.306-.505.306-5.816s-.015-5.526-.306-5.816a1.252,1.252,0,0,0-.918-.306,1.252,1.252,0,0,0-.918.306c-.276.276-.306.505-.306,2.449v2.143h-2.449v-2.143c0-1.944-.031-2.174-.306-2.449a1.252,1.252,0,0,0-.918-.306A1.252,1.252,0,0,0,208.306-471.694Z" transform="translate(-162.612 -21.33)" fill="#c90d41"/>
        <path id="Path_149" data-name="Path 149" d="M266.066-471.661a4.584,4.584,0,0,0-1.1.8c-.9.949-.964,1.3-.964,5.036s.061,4.087.964,5.036a3.434,3.434,0,0,0,2.709,1.087,3.434,3.434,0,0,0,2.709-1.087c.9-.949.964-1.3.964-5.066,0-3-.046-3.49-.291-4.026a3.951,3.951,0,0,0-1.883-1.821A4.8,4.8,0,0,0,266.066-471.661Zm2.219,2.464c.474.245.612,1.026.612,3.4,0,2.571-.168,3.26-.827,3.429a1.094,1.094,0,0,1-1.408-.628,20.338,20.338,0,0,1-.061-5.541A1.141,1.141,0,0,1,268.286-469.2Z" transform="translate(-210.041 -21.379)" fill="#c90d41"/>
        <path id="Path_150" data-name="Path 150" d="M320.306-471.694c-.291.291-.306.505-.306,5.816s.015,5.526.306,5.816a1.252,1.252,0,0,0,.918.306,1.252,1.252,0,0,0,.918-.306c.276-.276.306-.505.306-2.449v-2.143h1.071a3.524,3.524,0,0,0,2.74-.964,3.463,3.463,0,0,0,1.087-2.679,3.51,3.51,0,0,0-.964-2.617c-.872-.9-1.454-1.087-3.735-1.087C320.811-472,320.582-471.969,320.306-471.694Zm3.75,2.357a1.094,1.094,0,0,1,.628,1.408c-.122.459-.872.827-1.7.827h-.536v-2.449h.536A3.256,3.256,0,0,1,324.056-469.337Z" transform="translate(-257.469 -21.33)" fill="#c90d41"/>
        <path id="Path_151" data-name="Path 151" d="M224.306-127.694c-.26.26-.306.505-.306,1.531,0,1.469.245,1.837,1.224,1.837s1.224-.367,1.224-1.837S226.2-128,225.224-128A1.252,1.252,0,0,0,224.306-127.694Z" transform="translate(-176.163 -311.677)" fill="#c90d41"/>
        <path id="Path_152" data-name="Path 152" d="M272.306-127.694c-.26.26-.306.505-.306,1.531,0,1.469.245,1.837,1.224,1.837s1.224-.367,1.224-1.837S274.2-128,273.224-128A1.252,1.252,0,0,0,272.306-127.694Z" transform="translate(-216.816 -311.677)" fill="#c90d41"/>
      </g>
    </g>
    <path id="event_repeat_FILL0_wght400_GRAD0_opsz48" d="M9,44a2.878,2.878,0,0,1-2.1-.9A2.878,2.878,0,0,1,6,41V10a2.878,2.878,0,0,1,.9-2.1A2.878,2.878,0,0,1,9,7h3.25V4H15.5V7h17V4h3.25V7H39a2.878,2.878,0,0,1,2.1.9A2.878,2.878,0,0,1,42,10V25H39V19.5H9V41H25.2v3Zm29,4a9.643,9.643,0,0,1-6.375-2.275A9.8,9.8,0,0,1,28.2,40h3.1a6.891,6.891,0,0,0,2.475,3.6A7.008,7.008,0,0,0,42.95,33.05,6.745,6.745,0,0,0,38,31a6.9,6.9,0,0,0-2.7.525A6.81,6.81,0,0,0,33.1,33H36v3H28V28h3v2.85a10.455,10.455,0,0,1,3.15-2.075,10,10,0,0,1,10.925,2.15,10.019,10.019,0,0,1,0,14.15A9.638,9.638,0,0,1,38,48ZM9,16.5H39V10H9Zm0,0v0Z" transform="translate(300 385)" fill="#fac040"/>
  </g>
</svg>
