<svg xmlns="http://www.w3.org/2000/svg" width="112.47" height="112.47" viewBox="0 0 112.47 112.47">
  <g id="ShopWarining" transform="translate(-382 -465)">
    <g id="ShonWarning">
      <rect id="Rectangle_17" data-name="Rectangle 17" width="112.47" height="112.47" transform="translate(382 465)" fill="#fff"/>
    </g>
    <g id="coffee-shop" transform="translate(359.18 983.365)">
      <path id="Path_125" data-name="Path 125" d="M72.268-511.445c-5.883.959-10.825,3.264-14.237,6.676a16.839,16.839,0,0,0-4.832,9.94l-.111,1.18H45.4c-5.864,0-7.745.055-7.985.24-.3.2-.313,1.125-.277,13.407l.055,13.185.645,1.18a8.011,8.011,0,0,0,1.512,1.936l.885.756v22.535c0,20.23.037,22.553.3,22.812s3.873.3,36.956.3,36.7-.037,36.956-.3.3-2.582.3-22.812v-22.535l.885-.756a8.011,8.011,0,0,0,1.512-1.936l.645-1.18L117.836-480c.037-12.282.018-13.2-.277-13.407-.24-.184-2.121-.24-7.985-.24h-7.69l-.111-1.18a17.2,17.2,0,0,0-7.118-11.913A30.9,30.9,0,0,0,87.5-510.32c-3.375-1.051-4.832-1.254-9.368-1.328A37.743,37.743,0,0,0,72.268-511.445Zm11.4,2.49c6.842,1.475,11.876,4.776,14.273,9.4a14.5,14.5,0,0,1,1.66,5.79c.129,1.438.221,1.881.5,2.084.258.184,1.881.24,7.948.24h7.616v12.724H39.314v-12.724H46.93c6.067,0,7.69-.055,7.948-.24.277-.2.369-.627.5-1.992a14.013,14.013,0,0,1,4.315-9.5c3.1-3.117,7.506-5.145,13.167-6.067A42.41,42.41,0,0,1,83.665-508.955Zm-35.5,36.827c0,5.034-.074,5.348-1.531,6.62a4.244,4.244,0,0,1-6.233-.461c-1-1.143-1.088-1.7-1.088-6.362V-476.5h8.852Zm11.249,0c0,5.034-.074,5.348-1.531,6.62a4.255,4.255,0,0,1-6.2-.387c-1.088-1.236-1.125-1.494-1.125-6.27V-476.5h8.852Zm11.249,0c0,5.034-.074,5.348-1.531,6.62a4.255,4.255,0,0,1-6.2-.387c-1.088-1.236-1.125-1.494-1.125-6.27V-476.5h8.852Zm11.249,0c0,5.034-.074,5.348-1.531,6.62a4.153,4.153,0,0,1-5.791,0c-1.457-1.272-1.531-1.586-1.531-6.62V-476.5h8.852Zm11.249-.037c0,4.795-.074,5.182-1.162,6.344a4.305,4.305,0,0,1-6.159.314c-1.457-1.272-1.531-1.586-1.531-6.62V-476.5h8.852Zm11.249,0c0,4.776-.037,5.034-1.125,6.27a4.255,4.255,0,0,1-6.2.387c-1.457-1.272-1.531-1.586-1.531-6.62V-476.5h8.852Zm11.249-.148a43.37,43.37,0,0,1-.184,4.868A5.088,5.088,0,0,1,113-464.77a4.06,4.06,0,0,1-4.666-.738c-1.457-1.272-1.531-1.586-1.531-6.62V-476.5h8.852ZM52-462.816a4.911,4.911,0,0,0,2.987.609,4.988,4.988,0,0,0,2.969-.59,8.189,8.189,0,0,0,1.955-1.4l.738-.793.682.793a6.68,6.68,0,0,0,1.918,1.383,4.911,4.911,0,0,0,2.987.609,4.911,4.911,0,0,0,2.987-.609,6.726,6.726,0,0,0,1.936-1.4l.7-.793.7.793a6.638,6.638,0,0,0,1.936,1.4,4.911,4.911,0,0,0,2.987.609,4.911,4.911,0,0,0,2.987-.609,6.68,6.68,0,0,0,1.918-1.383l.682-.793.738.793a8.189,8.189,0,0,0,1.955,1.4,4.988,4.988,0,0,0,2.969.59,4.911,4.911,0,0,0,2.987-.609,6.68,6.68,0,0,0,1.918-1.383l.682-.793.738.793a8.189,8.189,0,0,0,1.955,1.4,4.988,4.988,0,0,0,2.969.59,4.911,4.911,0,0,0,2.987-.609,6.68,6.68,0,0,0,1.918-1.383l.682-.793.738.793a7.709,7.709,0,0,0,1.955,1.4,5.392,5.392,0,0,0,2.729.664l1.531.055v42.562H69.189v-18.607c0-16.671-.037-18.644-.3-18.9s-1.438-.3-10.327-.3c-9.792,0-10.032,0-10.4.369s-.369.609-.369,18.9v18.533H42.449v-42.562l1.531-.055a5.392,5.392,0,0,0,2.729-.664,7.71,7.71,0,0,0,1.936-1.4l.719-.793.7.793A7.677,7.677,0,0,0,52-462.816Zm14.974,25.5v17.8H50.194v-35.591H66.976Z" transform="translate(0)" fill="#c90d41"/>
      <path id="Path_126" data-name="Path 126" d="M222.721-486.56a3.1,3.1,0,0,0-.221,3.854c.627.94.664,1.125.258,1.826a1.154,1.154,0,0,0,.387,1.7c.867.387,1.807-.387,2.121-1.789a3.482,3.482,0,0,0-.664-2.711c-.516-.719-.516-.756-.2-1.291a2.5,2.5,0,0,0,.314-.977A1.123,1.123,0,0,0,222.721-486.56Z" transform="translate(-150.729 -20.146)" fill="#c90d41"/>
      <path id="Path_127" data-name="Path 127" d="M247.687-486.543a3.079,3.079,0,0,0-.24,3.891c.627,1,.645,1.18.277,1.678a1.13,1.13,0,0,0,1.162,1.844,2.453,2.453,0,0,0,1.328-2.471,2.423,2.423,0,0,0-.553-1.807c-.609-.848-.7-1.346-.277-1.7a1.136,1.136,0,0,0-.055-1.531A1.149,1.149,0,0,0,247.687-486.543Z" transform="translate(-171.066 -20.163)" fill="#c90d41"/>
      <path id="Path_128" data-name="Path 128" d="M272.4-486.484a3.265,3.265,0,0,0-.037,4.057c.553.7.572.959.2,1.457a1.146,1.146,0,0,0,1.088,1.881c.811-.2,1.309-1.143,1.309-2.526a2.452,2.452,0,0,0-.5-1.881c-.572-.738-.627-1.162-.24-1.678C275.165-486.41,273.45-487.609,272.4-486.484Z" transform="translate(-191.297 -20.166)" fill="#c90d41"/>
      <path id="Path_129" data-name="Path 129" d="M207.224-440.707l-.424.313.092,3.891c.111,4.057.277,5.274,1.125,7.708a11.779,11.779,0,0,0,2.526,4.223c1.567,1.6,1.66,1.641,5.293,1.641a14.479,14.479,0,0,0,3.6-.221,10.854,10.854,0,0,0,4.2-5.385l.443-1.217h1.9c2.139,0,2.711-.184,3.393-1.143.369-.535.424-.848.5-2.858.055-1.992.018-2.342-.332-3.061-.572-1.162-1.438-1.6-3.227-1.6h-1.4v-1c0-1.66.461-1.586-9.036-1.586C208.552-441,207.611-440.965,207.224-440.707Zm15.472,3.891c0,4.868-1.125,8.575-3.227,10.7l-1,.977h-5.2l-1-.977c-2.1-2.121-3.227-5.827-3.227-10.7v-1.973H222.7Zm4.795.959a8.44,8.44,0,0,1-.037,3.67,3.533,3.533,0,0,1-1.586.221c-1.18,0-1.346-.037-1.254-.3a18.008,18.008,0,0,0,.24-2.121l.111-1.826h1.162C227.085-436.208,227.325-436.152,227.491-435.857Z" transform="translate(-138.386 -57.626)" fill="#c90d41"/>
      <path id="Path_130" data-name="Path 130" d="M248.369-216.631c-.369.369-.369.609-.369,12.687,0,12.3,0,12.337.387,12.687.369.332.9.35,15.232.35h14.845l.35-.443c.332-.406.35-.885.35-12.669,0-12.005,0-12.245-.369-12.614s-.609-.369-15.214-.369S248.738-217,248.369-216.631ZM276.768-204v10.788H250.213v-21.576h26.555Z" transform="translate(-171.988 -240.32)" fill="#c90d41"/>
      <path id="Path_131" data-name="Path 131" d="M303.054-183.794c-2.932,1.715-5.5,3.246-5.68,3.393a1.167,1.167,0,0,0,.7,1.955c.3,0,11.175-6.141,11.839-6.676a1.392,1.392,0,0,0,.037-1.457c-.148-.258-.387-.35-.885-.332C308.531-186.892,307.221-186.209,303.054-183.794Z" transform="translate(-211.994 -264.859)" fill="#c90d41"/>
      <path id="Path_132" data-name="Path 132" d="M294.068-166.514c-4.149,2.416-7.653,4.5-7.782,4.61a1.332,1.332,0,0,0,.055,1.568,1.1,1.1,0,0,0,.719.3c.424,0,15.122-8.354,15.8-8.981a1.1,1.1,0,0,0-.793-1.881C301.831-170.9,298.235-168.912,294.068-166.514Z" transform="translate(-203.026 -277.915)" fill="#c90d41"/>
      <path id="Path_133" data-name="Path 133" d="M117.461-122.445c-.424.406-.461.572-.461,2.25a4.32,4.32,0,0,0,.3,2.231,1.2,1.2,0,0,0,1.567.221c.314-.184.35-.406.35-2.4,0-2.065-.018-2.213-.406-2.471C118.236-123.017,117.977-122.98,117.461-122.445Z" transform="translate(-65.146 -317.08)" fill="#c90d41"/>
    </g>
    <path id="Path_134" data-name="Path 134" d="M467.463,472.953l-19.546,38.468h38.914Z" fill="#fac040"/>
    <path id="Path_135" data-name="Path 135" d="M464.641,488.5v-.2l.2-.531.094-.2.141-.219.109-.219.156-.156.172-.172.172-.141.25-.187.359-.141.516-.187.3-.078h.781l.3.078.281.063.281.125.313.141.2.188.188.141.125.172.109.156.109.219.141.219.125.2.109.266.063.266.063.2v1.078l.016,8.328v.156l-.078.328-.094.172-.141.328-.172.3-.266.313-.437.359-.406.266-.5.188-.844.141-.687-.141-.609-.187-.516-.391-.3-.328-.25-.344-.266-.5-.109-.328V488.5Z" fill="#c90d41" stroke="#707070" stroke-width="0.1"/>
    <path id="Path_136" data-name="Path 136" d="M466.578,503.438l.141-.094h.3l.2-.078h.578l.438.078.25.094.234.109.219.109.2.125.125.094.125.125s.141.188.188.234a2.1,2.1,0,0,1,.172.219l.188.281.172.3a.92.92,0,0,1,.078.2c0,.047.109.453.109.453l.063.328a.358.358,0,0,0,0,.188.827.827,0,0,1,0,.281,1.08,1.08,0,0,0-.062.281,2.348,2.348,0,0,1-.109.422l-.078.2-.109.156-.25.344-.172.234-.312.266-.125.094-.141.109-.344.172-.328.141-.344.078h-1l-.234-.078-.266-.078-.25-.062-.187-.094-.187-.187-.2-.094-.172-.125-.187-.141-.25-.328-.109-.25-.109-.156-.078-.2-.109-.328-.078-.375v-.8l.078-.234.109-.312.078-.234.109-.172.109-.172.156-.234.281-.234.172-.219.391-.219.188-.109Z" transform="translate(0.078)" fill="#c90d41"/>
  </g>
</svg>
