<svg xmlns="http://www.w3.org/2000/svg" width="112.47" height="112.47" viewBox="0 0 112.47 112.47">
  <g id="ShopAppoiments" transform="translate(-83 -409)">
    <rect id="Rectangle_18" data-name="Rectangle 18" width="112.47" height="112.47" transform="translate(83 409)" fill="#fff"/>
    <g id="appointment" transform="translate(76.004 912.024)">
      <path id="Path_143" data-name="Path 143" d="M32.37-491.542c-1.69.776-9.685,5.469-10.8,6.324a19.131,19.131,0,0,0-5.548,22.531c.5,1.173,27.92,48.841,29.352,51.008a22.913,22.913,0,0,0,4.892,4.912,19.344,19.344,0,0,0,12.807,3.281,22.712,22.712,0,0,0,5.21-1.312c.259-.119.457.06.776.636a2.587,2.587,0,0,0,1.969,1.432c.3,0,.557.278.915.994a7.112,7.112,0,0,0,3.062,3.063c.915.418.994.418,16.028.418h15.114l1.014-.537a7.211,7.211,0,0,0,2.943-3.122c.4-.855.418-1.233.418-5.588v-4.673l-.656-1.332a5.393,5.393,0,0,0-3.023-2.923l-1.094-.517-7.119-.1-7.139-.1-.378-.477c-.318-.4-.378-.8-.378-2.685,0-2.148.02-2.247.517-2.724l.517-.477,7.179-.1,7.2-.1,1.014-.537a7.211,7.211,0,0,0,2.943-3.122c.4-.875.418-1.213.477-9.565a84.859,84.859,0,0,0-.159-9.7,4,4,0,0,0-4.236-3.023,1.182,1.182,0,0,1-1.114-.616,3.375,3.375,0,0,0-3-1.173h-1.193v-17.5h2.048c2.108-.02,2.466-.119,2.884-.935a1.9,1.9,0,0,0-.3-2.227c-.318-.318-6.165-4.793-13.025-9.943L80-491.423H78.924a2.9,2.9,0,0,0-2.028.656c-3.182,2.148-24.878,18.713-25.1,19.15a1.931,1.931,0,0,0,.5,2.267c.437.338.8.4,2.565.4H56.93v14.239c0,15.869-.06,15.153,1.372,16.028l.716.457H78.8c18.395,0,19.827-.02,20.423-.338,1.094-.617,1.511-1.412,1.611-3.162l.1-1.571h1.372c1.571,0,2.287-.318,2.824-1.213.2-.318.477-.577.636-.577.259,0,.278,1.054.239,7.954l-.06,7.935-.457.457c-.437.457-.5.457-7.557.557l-7.1.1-1.134.557a6.877,6.877,0,0,0-3.2,3.44,18.124,18.124,0,0,0,.08,7.736,6.413,6.413,0,0,0,3.46,3.46c1.034.4,1.511.418,7.776.418,7.3,0,7.557.04,8.014,1.153a15.948,15.948,0,0,1,.179,4.116l-.06,3.52-.557.477-.557.477H91.015c-9.128,0-13.96-.08-14.219-.2a3.123,3.123,0,0,1-.776-.994c-.378-.736-.378-.835-.1-1.392a2.961,2.961,0,0,0-.119-2.764,1.99,1.99,0,0,1-.338-.7c.04-.04.815-.477,1.75-.994,1.969-1.114,2.864-1.889,3.42-3a6.425,6.425,0,0,0,.358-4c-.358-1.153-9.426-16.784-10.182-17.56a5.433,5.433,0,0,0-4.793-1.531,21.974,21.974,0,0,0-4.534,2.207c-3.818,2.188-4.415,2.386-5.508,1.81a4.318,4.318,0,0,1-.955-.756c-.318-.358-14.835-25.335-15.77-27.145a3.308,3.308,0,0,1-.219-1.213c0-1.372.577-1.929,4.276-4.077,3.719-2.148,4.077-2.426,4.812-3.679a5.992,5.992,0,0,0,.4-4.355c-.159-.457-2.327-4.395-4.832-8.73-3.1-5.409-4.812-8.193-5.389-8.75A5.38,5.38,0,0,0,32.37-491.542Zm4.315,1.83c.7.5,1.472,1.71,5.071,7.935,4.872,8.392,5.429,9.486,5.429,10.44a4.42,4.42,0,0,1-1.173,2.685c-.239.219-1.79,1.153-3.44,2.108-3.6,2.068-4.2,2.526-4.773,3.619a4.971,4.971,0,0,0-.06,3.918c1.412,2.744,15.591,27.085,16.088,27.6a4.269,4.269,0,0,0,3.3,1.472c1.273,0,1.651-.159,5.23-2.267,2.884-1.69,3.838-2.128,4.634-2.148a5.122,5.122,0,0,1,2.983,1.551c.2.3,2.386,4.057,4.892,8.372,4.892,8.491,5.051,8.869,4.455,10.44-.537,1.392-.7,1.492-9.466,6.5a27.66,27.66,0,0,1-3.58,1.611c-1.83.616-1.989.636-5.071.656-3.7,0-4.753-.219-7.557-1.591a17.271,17.271,0,0,1-5.787-4.474c-.915-1.074-4.773-7.6-15.312-25.832-7.736-13.4-14.378-24.957-14.716-25.673a15.362,15.362,0,0,1-1.611-6.781,16.531,16.531,0,0,1,.219-4.176,17.2,17.2,0,0,1,6.145-10.1c.875-.656,9.963-6.065,10.878-6.443a4.237,4.237,0,0,1,1.352-.06A3.118,3.118,0,0,1,36.685-489.712Zm55.184,9.346c6.92,5.21,12.528,9.545,12.469,9.645s-11.236.179-25.554.179c-20.224,0-25.435-.06-25.415-.259,0-.378,24.957-19.031,25.474-19.031C79.123-489.832,84.054-486.252,91.87-480.366Zm7.219,25.574c0,12.886-.02,14.179-.338,14.517-.3.338-1.173.358-19.886.358-19.29,0-19.548,0-19.946-.4s-.4-.656-.4-14.517v-14.119H99.088Zm4.534,5.369a4.728,4.728,0,0,1,.239,2.068c0,2.307-.119,2.466-1.909,2.466h-1.273v-4.773h1.352A3.408,3.408,0,0,1,103.623-449.423Zm3.281,1.491a2.685,2.685,0,0,1,1.352.7l.577.6v8.969c0,8.293-.04,9.048-.378,9.8a5.282,5.282,0,0,1-2.784,2.426,53.034,53.034,0,0,1-7.338.239c-6.821,0-7.3.06-8.153.855-.974.915-1.134,1.472-1.134,4.116,0,2.247.04,2.565.457,3.222a4.32,4.32,0,0,0,1.114,1.134c.636.4.955.418,6.9.418,3.44,0,6.781.08,7.418.2a4.407,4.407,0,0,1,3.321,2.287l.577.994v4.375c0,3.818-.06,4.474-.378,5.19a5.181,5.181,0,0,1-2.864,2.446c-.616.179-4.713.219-15.074.179l-14.239-.06-.974-.6a4.7,4.7,0,0,1-1.611-1.69,9.859,9.859,0,0,1-.656-1.193c0-.239,1.074-.636,1.153-.437a7.685,7.685,0,0,0,.616,1.074c1.034,1.631.119,1.551,16.227,1.551,15.79,0,14.875.079,15.949-1.332l.557-.716.06-4.057c.06-3.8.04-4.116-.358-4.932a3.453,3.453,0,0,0-1.153-1.332c-.716-.457-.875-.457-7.915-.557l-7.179-.1-.974-.6a5.377,5.377,0,0,1-1.571-1.571c-.577-.935-.6-1.094-.656-3.46-.08-2.983.119-3.9,1.173-5.091,1.372-1.571,1.511-1.591,9.526-1.71,5.151-.08,7.179-.159,7.5-.358a4.483,4.483,0,0,0,.994-.974l.557-.716.06-8.71c.06-9.744.119-9.327-1.372-9.327-.716,0-.776-.04-.776-.557C105.452-448.11,105.571-448.17,106.9-447.931ZM74.33-407.244c.477.915.239,1.273-1.551,2.227-1.631.855-1.849.835-2.426-.3-.278-.537-.278-.537,1.452-1.531a14.324,14.324,0,0,1,1.949-1.034C73.873-407.9,74.131-407.6,74.33-407.244Z" transform="translate(0 0)" fill="#c90d41"/>
      <path id="Path_144" data-name="Path 144" d="M320.675-330.423a1.947,1.947,0,0,0-.577.955c0,.219-.278.517-.676.736a1.727,1.727,0,0,0-.378,2.943c.438.418.7.457,2.784.517,2.446.08,3.241-.1,3.739-.835a2.085,2.085,0,0,0,.1-1.909,2.788,2.788,0,0,0-.895-.776c-.437-.259-.7-.557-.7-.815,0-.716-.935-1.392-1.929-1.392A1.719,1.719,0,0,0,320.675-330.423Z" transform="translate(-243.481 -129.002)" fill="#fac040"/>
      <path id="Path_145" data-name="Path 145" d="M303.813-306.721a2.33,2.33,0,0,0,.219,1.969,4.374,4.374,0,0,0,1.79,1.273c1.432.7,1.631,1.173.3.716a2.242,2.242,0,0,0-2.526.716,1.47,1.47,0,0,0-.457,1.551,1.936,1.936,0,0,0,.736,1.472,1.569,1.569,0,0,0,1.651.477,1.859,1.859,0,0,0,1.472-.616,1.914,1.914,0,0,0,.457-.815c0-.159.557-.577,1.233-.915l1.213-.616,1.193.557a3.706,3.706,0,0,1,1.452,1.094,2.3,2.3,0,0,0,3.9.5,2.7,2.7,0,0,0-.04-2.764,2.472,2.472,0,0,0-2.506-.716c-1.312.378-1.193.04.258-.676a6.29,6.29,0,0,0,1.77-1.233,2.776,2.776,0,0,0,.2-2.028,19.353,19.353,0,0,0-3.142,1.313l-3,1.432-2.8-1.313C303.774-306.96,303.992-306.88,303.813-306.721Zm2.108,4.673a1.871,1.871,0,0,1,.935,1.452,1.9,1.9,0,0,1-.418.8,1.446,1.446,0,0,1-2.565-.835,1.5,1.5,0,0,1,.895-1.392C305.265-302.307,305.345-302.307,305.921-302.048Zm9.605.239a1.408,1.408,0,0,1-.935,2.526,1.461,1.461,0,0,1-.378-2.844C314.751-302.327,314.989-302.267,315.526-301.809Z" transform="translate(-231.233 -148.389)" fill="#fac040"/>
      <path id="Icon_awesome-shopping-cart" data-name="Icon awesome-shopping-cart" d="M12.279,7.006l1.1-4.836a.558.558,0,0,0-.544-.682H3.7L3.489.446A.558.558,0,0,0,2.942,0H.558A.558.558,0,0,0,0,.558V.93a.558.558,0,0,0,.558.558H2.183L3.816,9.473a1.3,1.3,0,1,0,1.559.2H10.25a1.3,1.3,0,1,0,1.479-.242l.128-.564a.558.558,0,0,0-.544-.682H5.071L4.919,7.44h6.816A.558.558,0,0,0,12.279,7.006Z" transform="translate(72.176 -484.035)" fill="#fac040"/>
    </g>
  </g>
</svg>
