<svg xmlns="http://www.w3.org/2000/svg" width="112.437" height="112.474" viewBox="0 0 112.437 112.474">
  <g id="Survey_shop" data-name="Survey shop" transform="translate(-555 -87)">
    <g id="research" transform="translate(546.837 591)">
      <path id="Path_8" data-name="Path 8" d="M65.112-503.683a9.619,9.619,0,0,0-5.465,4.9c-.567,1.134-.612,1.474-.612,3.855,0,2.426.045,2.7.635,3.855a16.089,16.089,0,0,0,1.406,2.154l.748.93-.884.5-.862.5-1.542-1A34.684,34.684,0,0,0,46.041-492.8,45.3,45.3,0,0,0,34-492.548a32.809,32.809,0,0,0-16.35,8.957,32.514,32.514,0,0,0-9.3,18.527,48.46,48.46,0,0,0,.34,11.384,33.009,33.009,0,0,0,17.393,22.472,43.391,43.391,0,0,0,7.143,2.63c.227.068.295,3.583.295,16.576,0,18.436-.068,17.438,1.61,19.048,1.315,1.225,2.086,1.429,5.692,1.429,3.651,0,4.467-.249,5.782-1.61,1.5-1.587,1.429-.771,1.429-18.889v-16.418l1.655-.476a31.954,31.954,0,0,0,5.193-2l1.066-.522H80.69v-3.923c0-3.469-.068-4.059-.544-5.442l-.522-1.519h8.322v4.24c0,4.762.136,5.284,1.633,6.191.726.431,1.179.454,14.694.454s13.969-.023,14.694-.454a4.171,4.171,0,0,0,1.179-1.179c.431-.726.454-1.179.454-14.694s-.023-13.969-.454-14.694a4.171,4.171,0,0,0-1.179-1.179c-.726-.431-1.179-.454-14.694-.454s-13.969.023-14.694.454a4.171,4.171,0,0,0-1.179,1.179c-.431.7-.454,1.156-.454,8.617v7.891H77.107l-1-.816a9.7,9.7,0,0,0-1.474-1.066c-.5-.227-.5-.227.272-1.156a18.029,18.029,0,0,0,1.406-2.177c.59-1.156.635-1.429.635-3.855,0-2.4-.045-2.721-.635-3.923a12.338,12.338,0,0,0-1.723-2.4c-1.066-1.088-1.088-1.134-1.338-3.243-.159-1.179-.522-3.129-.839-4.354-.317-1.2-.567-2.222-.567-2.29a41.659,41.659,0,0,1,4.422-.113H80.69v-3.923c0-3.469-.068-4.059-.544-5.442l-.522-1.519h8.322v4.24c0,4.762.136,5.284,1.633,6.191.726.431,1.179.454,14.694.454s13.969-.023,14.694-.454a4.171,4.171,0,0,0,1.179-1.179c.431-.726.454-1.179.454-14.694s-.023-13.969-.454-14.694a4.171,4.171,0,0,0-1.179-1.179c-.726-.431-1.179-.454-14.694-.454s-13.969.023-14.694.454a4.171,4.171,0,0,0-1.179,1.179c-.431.7-.454,1.156-.454,8.617v7.891H77.107l-1-.816a9.7,9.7,0,0,0-1.474-1.066c-.5-.227-.5-.227.272-1.156a18.029,18.029,0,0,0,1.406-2.177c.59-1.156.635-1.429.635-3.855s-.045-2.7-.658-3.968a10.059,10.059,0,0,0-4.331-4.309,6.583,6.583,0,0,0-3.628-.726A10.755,10.755,0,0,0,65.112-503.683Zm51.861,16.009v12.7h-25.4v-25.4h25.4ZM69.987-499.782a5.269,5.269,0,0,1,1.61,8.64,5.222,5.222,0,0,1-8.821-3.787,5.434,5.434,0,0,1,3.061-4.83A6.334,6.334,0,0,1,69.987-499.782Zm-24.9,10.771A29.6,29.6,0,0,1,55.5-485.247c.952.567,1.746,1.043,1.791,1.088a9.98,9.98,0,0,1-.68,1.519l-.748,1.5-2.041-1.225a25.99,25.99,0,0,0-22.608-1.723,25.361,25.361,0,0,0-14.15,14.263,26.644,26.644,0,0,0,.113,19.048,25.329,25.329,0,0,0,18.617,15.306,31.709,31.709,0,0,0,11.157-.227,29.064,29.064,0,0,0,6.871-2.835l1.587-.975-.113,2.041-.113,2.041-1.7.862a27.7,27.7,0,0,1-12.585,2.925,28.007,28.007,0,0,1-13.13-3.084,26.6,26.6,0,0,1-7.1-5.17,27.877,27.877,0,0,1-8.685-20.567,27.877,27.877,0,0,1,8.685-20.567,27.015,27.015,0,0,1,7.075-5.17A28.7,28.7,0,0,1,45.088-489.011Zm26.6,4.127a10.363,10.363,0,0,1,4.354,4.309,15.465,15.465,0,0,1,1.02,4.966v.635H58.921v-.635a15.674,15.674,0,0,1,1-4.921,9.2,9.2,0,0,1,5.193-4.694A10.236,10.236,0,0,1,71.688-484.884Zm-25.715,3.469a24.237,24.237,0,0,1,7.8,3.719l1.519,1.134v5.193l2.086.068,2.109.068.522.975a25.535,25.535,0,0,1,2.064,6.281l.272,1.587-1,1.066a8.164,8.164,0,0,0-2.381,5.873,6.491,6.491,0,0,0,.476,3.583l.567,1.406-1.315,1.973A21.294,21.294,0,0,1,40.576-438.9a21.643,21.643,0,0,1-20.545-15.556,23.17,23.17,0,0,1,.249-12.857A21.637,21.637,0,0,1,45.973-481.414Zm22.019,11.361a28.159,28.159,0,0,1,1.361,5.442c0,.5-.091.522-1.655.522H66.019l-.272-1.5a28.748,28.748,0,0,0-1.02-3.628l-.771-2.132h3.56Zm48.981,22.291v12.7h-25.4v-25.4h25.4ZM69.987-459.872a5.269,5.269,0,0,1,1.61,8.64,5.222,5.222,0,0,1-8.821-3.787,5.434,5.434,0,0,1,3.061-4.83A6.334,6.334,0,0,1,69.987-459.872Zm1.7,14.9a10.363,10.363,0,0,1,4.354,4.309,15.465,15.465,0,0,1,1.02,4.966v.635H58.921v-.635a15.674,15.674,0,0,1,1-4.921,9.2,9.2,0,0,1,5.193-4.694A10.236,10.236,0,0,1,71.688-444.974Zm-27.28,32.45c0,10.794-.068,15.488-.249,16.009a1.664,1.664,0,0,1-1.02,1.043,9.939,9.939,0,0,1-4.626.068c-1.383-.5-1.361-.181-1.361-17.1v-15.307h7.256Z" fill="#c90d41"/>
      <path id="Path_9" data-name="Path 9" d="M392-470.186v1.814h18.141V-472H392Z" transform="translate(-296.797 -24.744)" fill="#c90d41"/>
      <path id="Path_10" data-name="Path 10" d="M392-438.186v1.814h18.141V-440H392Z" transform="translate(-296.797 -49.487)" fill="#c90d41"/>
      <path id="Path_11" data-name="Path 11" d="M392-406.186v1.814h18.141V-408H392Z" transform="translate(-296.797 -74.231)" fill="#c90d41"/>
      <path id="Path_12" data-name="Path 12" d="M392-294.186v1.814h18.141V-296H392Z" transform="translate(-296.797 -160.833)" fill="#c90d41"/>
      <path id="Path_13" data-name="Path 13" d="M392-262.186v1.814h18.141V-264H392Z" transform="translate(-296.797 -185.577)" fill="#c90d41"/>
      <path id="Path_14" data-name="Path 14" d="M392-230.186v1.814h18.141V-232H392Z" transform="translate(-296.797 -210.32)" fill="#c90d41"/>
      <path id="Path_15" data-name="Path 15" d="M225.819-151.683a9.619,9.619,0,0,0-5.465,4.9c-.567,1.134-.612,1.474-.612,3.855,0,2.426.045,2.7.635,3.855a18.028,18.028,0,0,0,1.406,2.177l.748.907-.748.408a14.507,14.507,0,0,0-3.878,3.923,14.576,14.576,0,0,0-1.338,2.857c-.522,1.565-.567,2.041-.567,5.578v3.878h25.4v-3.923c0-3.469-.068-4.059-.544-5.442l-.522-1.519h8.322v4.24c0,4.762.136,5.284,1.633,6.191.726.431,1.179.454,14.694.454s13.969-.023,14.694-.454a4.171,4.171,0,0,0,1.179-1.179c.431-.726.454-1.179.454-14.694s-.023-13.969-.454-14.694a4.172,4.172,0,0,0-1.179-1.179c-.726-.431-1.179-.454-14.694-.454s-13.969.023-14.694.454a4.171,4.171,0,0,0-1.179,1.179c-.431.7-.454,1.156-.454,8.617v7.891H237.815l-1-.816a9.693,9.693,0,0,0-1.474-1.066c-.5-.227-.5-.227.272-1.156a18.028,18.028,0,0,0,1.406-2.177c.59-1.156.635-1.429.635-3.855s-.045-2.7-.658-3.968a10.058,10.058,0,0,0-4.331-4.309,6.583,6.583,0,0,0-3.628-.726A10.755,10.755,0,0,0,225.819-151.683Zm51.861,16.009v12.7h-25.4v-25.4h25.4Zm-46.985-12.109a5.269,5.269,0,0,1,1.61,8.64,5.222,5.222,0,0,1-8.821-3.787,5.434,5.434,0,0,1,3.061-4.83A6.334,6.334,0,0,1,230.694-147.782Zm1.7,14.9a10.363,10.363,0,0,1,4.354,4.309,15.465,15.465,0,0,1,1.02,4.966v.635H219.628v-.635a15.673,15.673,0,0,1,1-4.921,9.2,9.2,0,0,1,5.193-4.694A10.236,10.236,0,0,1,232.395-132.884Z" transform="translate(-160.707 -272.179)" fill="#c90d41"/>
      <path id="Path_16" data-name="Path 16" d="M392-118.186v1.814h18.141V-120H392Z" transform="translate(-296.797 -296.923)" fill="#c90d41"/>
      <path id="Path_17" data-name="Path 17" d="M392-86.186v1.814h18.141V-88H392Z" transform="translate(-296.797 -321.667)" fill="#c90d41"/>
      <path id="Path_18" data-name="Path 18" d="M392-54.186v1.814h18.141V-56H392Z" transform="translate(-296.797 -346.41)" fill="#c90d41"/>
    </g>
    <g id="Ellipse_1" data-name="Ellipse 1" transform="translate(609 130)" fill="#fac040" stroke="#707070" stroke-width="0.1">
      <circle cx="6" cy="6" r="6" stroke="none"/>
      <circle cx="6" cy="6" r="5.95" fill="none"/>
    </g>
    <g id="Ellipse_2" data-name="Ellipse 2" transform="translate(609 170)" fill="#fac040" stroke="#707070" stroke-width="0.1">
      <circle cx="6" cy="6" r="6" stroke="none"/>
      <circle cx="6" cy="6" r="5.95" fill="none"/>
    </g>
    <g id="Ellipse_3" data-name="Ellipse 3" transform="translate(609 90)" fill="#fac040" stroke="#707070" stroke-width="0.1">
      <circle cx="6" cy="6" r="6" stroke="none"/>
      <circle cx="6" cy="6" r="5.95" fill="none"/>
    </g>
  </g>
</svg>
