<svg xmlns="http://www.w3.org/2000/svg" width="112.47" height="112.47" viewBox="0 0 112.47 112.47">
  <g id="SurveyExecutive" transform="translate(-427.12 -349)">
    <rect id="Rectangle_14" data-name="Rectangle 14" width="112.47" height="112.47" transform="translate(427.12 349)" fill="#fff"/>
    <g id="leader_1_" data-name="leader (1)" transform="translate(417.701 850.92)">
      <path id="Path_73" data-name="Path 73" d="M93.052-495.561a11.564,11.564,0,0,0-7.895,7.189c-.505,1.422-.526,1.7-.526,6,0,4.957.189,6.221,1.221,8.512a15.045,15.045,0,0,0,3.895,5.233l1.663,1.54-.147,1.126a4.862,4.862,0,0,1-1.726,3.417c-1.011.849-1.684,1.086-4.021,1.343a8.59,8.59,0,0,0-6.905,4.463c-.589,1.126-.611,1.323-.674,4.285-.105,3.969-.147,3.91,2.905,3.91h2.105v-3.16H81.2l.147-1.3a4.882,4.882,0,0,1,1.453-3.4c1.01-.987,1.937-1.343,4.105-1.58a9.214,9.214,0,0,0,3.158-.79l1.2-.553,2.589,1.185,2.568,1.2v5.233H88v3.16H96.42v3.16H76.631c-19.515,0-19.789,0-20.21.395-.379.355-.421.652-.421,3.16v2.765h3.368v-3.16H96.42v3.16h3.368v-3.16H136.84v3.16h3.368v-2.765c0-2.508-.042-2.8-.421-3.16-.421-.395-.695-.395-20.21-.395H99.789v-3.16h8.842c8.674,0,8.842,0,9.284-.415.421-.395.442-.592.358-3.5-.063-2.962-.084-3.16-.674-4.285a11.255,11.255,0,0,0-1.684-2.192,8.422,8.422,0,0,0-5.179-2.251c-2.379-.277-3.053-.494-4.063-1.363a4.862,4.862,0,0,1-1.726-3.417l-.147-1.126,1.663-1.54a14.9,14.9,0,0,0,4.8-7.919c.463-1.975.442-9.855-.021-11.316a11.591,11.591,0,0,0-7.726-7.584c-1.474-.454-1.874-.494-5.453-.474C94.989-495.916,93.978-495.837,93.052-495.561Zm7.684,2.982a11.706,11.706,0,0,1,2.568.691,9.409,9.409,0,0,1,3.958,3.713,12.571,12.571,0,0,1,.905,5.233l-.063,1.027-.905-.454a7.839,7.839,0,0,1-3.01-2.745,9.68,9.68,0,0,1-.716-2.133c-.484-2.133-.695-2.37-2.084-2.37-1.032,0-1.558.652-1.789,2.192a6.428,6.428,0,0,1-3.768,5.056c-1.137.513-1.389.553-4.505.612L88-481.677v-1.363a12.456,12.456,0,0,1,.947-5.135,9.385,9.385,0,0,1,3.979-3.733A16.477,16.477,0,0,1,100.736-492.578Zm4.421,13.093c.589.257,1.453.593,1.958.751.884.237.884.257.758.948a13.109,13.109,0,0,1-6.316,8.472,6.176,6.176,0,0,1-4.442,1.027,13.238,13.238,0,0,1-6.989-5.214,15.082,15.082,0,0,1-1.768-4.226l-.126-.632h2.8a30.5,30.5,0,0,0,3.937-.2,11.666,11.666,0,0,0,5.368-2.725l1.179-1.145,1.305,1.224A12.085,12.085,0,0,0,105.157-479.485ZM96.9-464.91a10.406,10.406,0,0,0,4.105-.336c.4-.1.463-.059.463.395a11.47,11.47,0,0,0,.926,2.9c.105.237-.295.474-1.916,1.126a18.862,18.862,0,0,1-2.337.829,16.167,16.167,0,0,1-2.358-.987l-2.084-.987.4-.849a7.28,7.28,0,0,0,.547-1.7c.126-.731.189-.829.589-.711C95.494-465.167,96.231-465.029,96.9-464.91Zm9.537,6.32a14.437,14.437,0,0,0,2.716.592c2.274.257,2.947.494,3.958,1.343a4.994,4.994,0,0,1,1.747,3.634l.147,1.323H99.768l.063-2.587.063-2.607,2.526-1.047c1.389-.553,2.632-1.047,2.779-1.047A4.5,4.5,0,0,1,106.441-458.591Z" transform="translate(-32.1 0)" fill="#c90d41"/>
      <path id="Path_74" data-name="Path 74" d="M16.395-191.605c-.316.316-.395.652-.395,1.738a11.01,11.01,0,0,0,5.688,9.183c2.449,1.284,2.785,1.323,9.756,1.323,7.149,0,6.655-.138,5.786,1.738a9.255,9.255,0,0,1-3.792,3.752,5.872,5.872,0,0,1-3.219.533,5.718,5.718,0,0,1-3.2-.533,8.1,8.1,0,0,1-4.305-5.056c-.2-.79-.257-.849-.75-.75-2.8.533-2.824.533-2.725.869.059.178.158.592.237.928a11.868,11.868,0,0,0,3.693,5.609l.889.671-1.165.77a12.69,12.69,0,0,0-3.93,4.5,11.891,11.891,0,0,0-1.382,6.162c0,1.876.039,2.172.395,2.528.395.395.652.395,12.244.395s11.849,0,12.244-.395c.355-.355.395-.652.395-2.528a11.832,11.832,0,0,0-1.422-6.221,14.207,14.207,0,0,0-4.345-4.759l-.691-.375,1.284-1.2a10.374,10.374,0,0,0,3.594-8.215,9.283,9.283,0,0,0-.494-3.5,10.978,10.978,0,0,0-7.07-7.07l-1.5-.494h-7.7C17.047-192,16.77-191.98,16.395-191.605Zm14.713,2.962a7.844,7.844,0,0,1,6,4.187c1.047,2.074,1.382,1.935-4.463,1.935-5.609,0-7.347-.178-8.847-.869a8.228,8.228,0,0,1-3.634-3.515c-1.047-2.074-1.382-1.935,4.483-1.935C27.435-188.84,30.338-188.741,31.108-188.643Zm-.889,26.661H31.8v-7.682l1.047.3a9.719,9.719,0,0,1,6.28,6.221,8.73,8.73,0,0,1,.375,1.975v.77H20.937v-.75c0-3.3,2.982-7.05,6.478-8.137l1.126-.355.059,3.831.039,3.831Z" transform="translate(0 -239.591)" fill="#c90d41"/>
      <path id="Path_75" data-name="Path 75" d="M184.395-191.605c-.316.316-.395.652-.395,1.738a11.01,11.01,0,0,0,5.688,9.183c2.449,1.284,2.785,1.323,9.756,1.323,7.149,0,6.655-.138,5.786,1.738a9.255,9.255,0,0,1-3.792,3.752,5.872,5.872,0,0,1-3.219.533,5.718,5.718,0,0,1-3.2-.533,8.1,8.1,0,0,1-4.305-5.056c-.2-.79-.257-.849-.75-.75-2.8.533-2.824.533-2.725.869.059.178.158.592.237.928a11.868,11.868,0,0,0,3.693,5.609l.889.671-1.165.77a12.69,12.69,0,0,0-3.93,4.5,11.891,11.891,0,0,0-1.382,6.162c0,1.876.039,2.172.395,2.528.395.395.652.395,12.244.395s11.849,0,12.244-.395c.355-.355.395-.652.395-2.528a11.832,11.832,0,0,0-1.422-6.221,14.207,14.207,0,0,0-4.345-4.759l-.691-.375,1.284-1.2a10.374,10.374,0,0,0,3.594-8.215,9.282,9.282,0,0,0-.494-3.5,10.978,10.978,0,0,0-7.07-7.07l-1.5-.494h-7.7C185.047-192,184.77-191.98,184.395-191.605Zm14.713,2.962a7.844,7.844,0,0,1,6,4.187c1.047,2.074,1.382,1.935-4.463,1.935-5.609,0-7.347-.178-8.847-.869a8.228,8.228,0,0,1-3.634-3.515c-1.047-2.074-1.382-1.935,4.483-1.935C195.435-188.84,198.338-188.741,199.108-188.643Zm-.889,26.661h1.58v-7.682l1.047.3a9.719,9.719,0,0,1,6.28,6.221,8.73,8.73,0,0,1,.375,1.975v.77H188.937v-.75c0-3.3,2.982-7.05,6.478-8.137l1.126-.355.059,3.831.04,3.831Z" transform="translate(-132.276 -239.591)" fill="#c90d41"/>
      <path id="Path_76" data-name="Path 76" d="M360.395-191.605c-.316.316-.395.652-.395,1.738a11.01,11.01,0,0,0,5.688,9.183c2.449,1.284,2.785,1.323,9.756,1.323,7.149,0,6.655-.138,5.786,1.738a9.255,9.255,0,0,1-3.792,3.752,5.871,5.871,0,0,1-3.219.533,5.718,5.718,0,0,1-3.2-.533,8.1,8.1,0,0,1-4.305-5.056c-.2-.79-.257-.849-.75-.75-2.8.533-2.824.533-2.725.869.059.178.158.592.237.928a11.868,11.868,0,0,0,3.693,5.609l.889.671-1.165.77a12.69,12.69,0,0,0-3.93,4.5,11.891,11.891,0,0,0-1.382,6.162c0,1.876.039,2.172.395,2.528.395.395.652.395,12.244.395s11.849,0,12.244-.395c.356-.355.395-.652.395-2.528a11.832,11.832,0,0,0-1.422-6.221,14.207,14.207,0,0,0-4.345-4.759l-.691-.375,1.284-1.2a10.374,10.374,0,0,0,3.594-8.215,9.282,9.282,0,0,0-.494-3.5,10.978,10.978,0,0,0-7.07-7.07l-1.5-.494h-7.7C361.047-192,360.77-191.98,360.395-191.605Zm14.713,2.962a7.843,7.843,0,0,1,6,4.187c1.047,2.074,1.382,1.935-4.463,1.935-5.609,0-7.347-.178-8.848-.869a8.228,8.228,0,0,1-3.634-3.515c-1.047-2.074-1.382-1.935,4.483-1.935C371.435-188.84,374.338-188.741,375.108-188.643Zm-.889,26.661h1.58v-7.682l1.047.3a9.718,9.718,0,0,1,6.28,6.221,8.728,8.728,0,0,1,.375,1.975v.77H364.937v-.75c0-3.3,2.982-7.05,6.478-8.137l1.126-.355.059,3.831.04,3.831Z" transform="translate(-270.85 -239.591)" fill="#c90d41"/>
    </g>
    <path id="Path_77" data-name="Path 77" d="M481.964,441.721l.132,7.579h3.116v-7.675h.179l.156.1.391.123.313.109.281.094.266.094.281.094.7.313.516.3.391.25,1.047.828.375.328.813.875.609.875.5.906.281.625.453,1.328.109.7.063.672v.7l-18.594.016v-.812l.078-.922.375-1.422.281-.594.406-.781.594-.937.906-1,1.016-.937,1.094-.719,1.016-.516.594-.266.672-.2Z" fill="#fac040" stroke="#707070" stroke-width="0.1"/>
    <path id="Path_78" data-name="Path 78" d="M482.492,441.721l.141,7.579h3.187v-7.579l.145-.1h0l.358.1.418.123.334.109.3.094.284.094.3.094.752.313.551.3.418.25,1.12.828.4.328.869.875.652.875.535.906.3.625.485,1.328.117.7.067.672v.7l-19.883.016v-.812l.084-.922.4-1.422.3-.594.434-.781.635-.937.969-1,1.086-.937,1.17-.719,1.086-.516.635-.266.718-.2Z" transform="translate(-36.29)" fill="#fac040" stroke="#707070" stroke-width="0.1"/>
    <path id="Path_79" data-name="Path 79" d="M481.976,441.721l.132,7.579h3.121v-7.675h.179l.157.1.391.123.313.109.282.094.266.094.282.094.7.313.516.3.391.25,1.048.828.376.328.814.875.61.875.5.906.282.625.454,1.328.11.7.063.672v.7l-18.623.016v-.812l.078-.922.376-1.422.282-.594.407-.781.595-.937.908-1,1.017-.937,1.1-.719,1.017-.516.595-.266.673-.2Z" transform="translate(37.46)" fill="#fac040" stroke="#707070" stroke-width="0.1"/>
  </g>
</svg>
