<svg xmlns="http://www.w3.org/2000/svg" width="112.47" height="112.47" viewBox="0 0 112.47 112.47">
  <g id="SurveyPending" transform="translate(-106.765 -230)">
    <g id="SurveyPending-2" data-name="SurveyPending" transform="translate(11.765 -227)">
      <g id="Rectangle_15" data-name="Rectangle 15" transform="translate(95 457)" fill="#fff" stroke="#707070" stroke-width="1">
        <rect width="112.47" height="112.47" stroke="none"/>
        <rect x="0.5" y="0.5" width="111.47" height="111.47" fill="none"/>
      </g>
      <g id="delete" transform="translate(48.995 973.109)">
        <path id="Path_80" data-name="Path 80" d="M167.286-511.651a7.782,7.782,0,0,0-5.212,4.77,4.545,4.545,0,0,0,.406,4.63l.693.938-1.435,1.217c-3.945,3.373-4.806,8.262-2.224,12.393a13.55,13.55,0,0,0,5.451,4.45,13.159,13.159,0,0,0,5.738,1.058,12.881,12.881,0,0,0,8.846-2.994c5.045-4.191,5.093-10.637.12-14.908l-1.434-1.217.669-.9c1.817-2.415.478-6.566-2.726-8.522A11.4,11.4,0,0,0,167.286-511.651Zm-2.606,15.507a8.323,8.323,0,0,0,3.754,1.7,10.282,10.282,0,0,0,8.583-1.9,3.484,3.484,0,0,1,.908-.619c.12,0,.5.519.861,1.137a4.9,4.9,0,0,1,.646,3.153,4.812,4.812,0,0,1-.622,3.093,7.7,7.7,0,0,1-4.208,3.532,7.274,7.274,0,0,1-3.754.758c-4.017,0-7.149-1.776-8.511-4.85a6.962,6.962,0,0,1,.287-5.688,4.77,4.77,0,0,1,.789-1.137A5.978,5.978,0,0,1,164.68-496.144Z" transform="translate(-79.262 0)" fill="#c90d41"/>
        <path id="Path_81" data-name="Path 81" d="M310.832-466.564a4.321,4.321,0,0,0-2.439,5.947,13.8,13.8,0,0,0,2.391,2.495l1.913,1.636-1.817,1.477c-3.036,2.535-3.682,4.391-2.3,6.606a4.811,4.811,0,0,0,4.351,2.335c2.391.12,3.132-.16,5.547-2.115l2.1-1.7,2.1,1.7c2.415,1.956,3.18,2.235,5.547,2.115a4.913,4.913,0,0,0,4.232-2.1,3.264,3.264,0,0,0,.669-2.355c0-1.736-.55-2.594-2.965-4.59l-1.7-1.377,1.889-1.617c2.415-2.056,2.749-2.614,2.773-4.391a3.159,3.159,0,0,0-.669-2.355,4.913,4.913,0,0,0-4.232-2.1c-2.391-.12-3.132.16-5.547,2.115l-2.1,1.7-2.008-1.617a15.327,15.327,0,0,0-2.845-1.936A8.71,8.71,0,0,0,310.832-466.564Z" transform="translate(-192.358 -36.166)" fill="#c90d41"/>
        <path id="Path_82" data-name="Path 82" d="M60.822-421.6c-.454.419-.478.679-.478,6.466v6.027l-1.889.06a4.963,4.963,0,0,0-2.917.679,4.264,4.264,0,0,0,0,7.584l1.028.6,9.061.06,9.061.06v4.031c0,3.712.048,4.131.574,5.348a11.781,11.781,0,0,0,1.267,2.2l.741.878-.741.878a11.166,11.166,0,0,0-1.267,2.2c-.55,1.277-.574,1.5-.574,8.322,0,8.781-.359,8.063,4.088,8.063h3.084v25.665l-3.108.858c-3.371.918-4.064,1.317-4.064,2.315,0,.878.765,1.5,1.865,1.5,1.219,0,7.89-1.876,8.583-2.435l.55-.419v-27.481h10.52v13.73c0,13.331.024,13.75.454,14.15.574.519,7.436,2.455,8.655,2.455,1.506,0,2.271-1.078,1.6-2.275-.287-.539-.932-.8-4.782-1.836l-2.1-.559v-25.665h3.084c4.447,0,4.088.7,4.088-7.983,0-7.783-.12-8.462-1.745-10.477l-.813-1,.789-1a11.239,11.239,0,0,0,1.291-2.275c.478-1.2.5-1.617.43-6.785-.072-5.229-.1-5.548-.6-6.326a5.97,5.97,0,0,0-2.989-2.555l-1.243-.519H79.566l-1.243.519a5.71,5.71,0,0,0-2.989,2.614l-.5.858H66.871c-8.7,0-9.468-.08-9.779-1.078-.406-1.357.741-1.916,3.945-1.916,3.323,0,3.132.5,3.132-8.083v-7.025l-.55-.419A2.4,2.4,0,0,0,60.822-421.6Zm41.744,18.36.813.758v5.129c0,5.608-.072,5.947-1.578,7.584l-.6.659H80.666l-.741-.858c-1.387-1.577-1.411-1.736-1.411-7.264,0-4.43.048-5.169.406-5.668.837-1.177.837-1.177,12.337-1.118l10.5.04Zm-.932,17.762c1.626,1.437,1.626,1.417,1.7,8.182l.072,6.147H78.514V-377.1c0-6.486.048-6.646,1.578-8.322l.622-.7h20.179Z" transform="translate(0 -72.129)" fill="#c90d41"/>
        <path id="Path_83" data-name="Path 83" d="M293.478-346.561c-.478.439-.478.6-.478,17.742v17.3l.669,1.058a5.05,5.05,0,0,0,1.7,1.676l1.028.6h32.9l1.028-.6a5.051,5.051,0,0,0,1.7-1.676c.622-.978.669-1.237.669-3.393,0-2.2-.048-2.375-.55-2.774s-.813-.439-3.586-.439h-3.036v-29.077l-.55-.419-.55-.439H293.98Zm28.212,16.025v13.471H311.6c-8.129.02-10.209.06-10.544.279-.622.4-.885,1.377-.885,3.253,0,1.437-.072,1.7-.526,2.056a1.887,1.887,0,0,1-2.3,0l-.526-.419v-32.111H321.69Zm7.173,17.542c0,.938-.1,1.138-.622,1.5-.622.419-.861.419-12.648.419H303.568l.215-.758a6.314,6.314,0,0,0,.215-1.5v-.738h24.865Z" transform="translate(-181.029 -132.201)" fill="#c90d41"/>
        <path id="Path_84" data-name="Path 84" d="M324.488-316.6a1.389,1.389,0,0,0,0,2.2,1.715,1.715,0,0,0,2.821-1.1,1.608,1.608,0,0,0-1.674-1.5A2.248,2.248,0,0,0,324.488-316.6Z" transform="translate(-205.018 -156.214)" fill="#c90d41"/>
        <path id="Path_85" data-name="Path 85" d="M354.488-316.6a1.389,1.389,0,0,0,0,2.2c.478.379.813.4,4.71.4,4.471-.02,4.829-.08,5.236-1.018a1.411,1.411,0,0,0-.622-1.7c-.287-.2-1.53-.259-4.614-.279C355.3-317,354.966-316.98,354.488-316.6Z" transform="translate(-227.406 -156.214)" fill="#c90d41"/>
        <path id="Path_86" data-name="Path 86" d="M324.488-286.6a1.389,1.389,0,0,0,0,2.2,1.715,1.715,0,0,0,2.821-1.1,1.608,1.608,0,0,0-1.674-1.5A2.248,2.248,0,0,0,324.488-286.6Z" transform="translate(-205.018 -180.227)" fill="#c90d41"/>
        <path id="Path_87" data-name="Path 87" d="M354.488-286.6a1.389,1.389,0,0,0,0,2.2c.478.379.813.4,4.71.4,4.471-.02,4.829-.08,5.236-1.018a1.411,1.411,0,0,0-.622-1.7c-.287-.2-1.53-.259-4.614-.279C355.3-287,354.966-286.98,354.488-286.6Z" transform="translate(-227.406 -180.227)" fill="#c90d41"/>
        <path id="Path_88" data-name="Path 88" d="M324.488-256.6a1.389,1.389,0,0,0,0,2.2,1.715,1.715,0,0,0,2.821-1.1,1.608,1.608,0,0,0-1.674-1.5A2.248,2.248,0,0,0,324.488-256.6Z" transform="translate(-205.018 -204.24)" fill="#c90d41"/>
        <path id="Path_89" data-name="Path 89" d="M354.488-256.6a1.389,1.389,0,0,0,0,2.2c.478.379.813.4,4.71.4,4.471-.02,4.829-.08,5.236-1.018a1.411,1.411,0,0,0-.622-1.7c-.287-.2-1.53-.259-4.614-.279C355.3-257,354.966-256.98,354.488-256.6Z" transform="translate(-227.406 -204.24)" fill="#c90d41"/>
        <path id="Path_90" data-name="Path 90" d="M324.488-226.6a1.389,1.389,0,0,0,0,2.2,1.715,1.715,0,0,0,2.821-1.1,1.608,1.608,0,0,0-1.674-1.5A2.248,2.248,0,0,0,324.488-226.6Z" transform="translate(-205.018 -228.252)" fill="#c90d41"/>
        <path id="Path_91" data-name="Path 91" d="M354.488-226.6a1.389,1.389,0,0,0,0,2.2c.478.379.813.4,4.71.4,4.471-.02,4.829-.08,5.236-1.018a1.411,1.411,0,0,0-.622-1.7c-.287-.2-1.53-.259-4.614-.279C355.3-227,354.966-226.98,354.488-226.6Z" transform="translate(-227.406 -228.252)" fill="#c90d41"/>
      </g>
      <path id="Path_92" data-name="Path 92" d="M127.539,529.843V519.716l.172-1.579.24-1.03.618-.961.549-.687.549-.549h20.219l.309.275.412.275.206.172.309.343.275.172.206.412.206.275.24.549.172.755v1.579l.206,10.127Z" fill="#fac040" stroke="#707070" stroke-width="0.1"/>
    </g>
    <path id="Path_93" data-name="Path 93" d="M183.758,299.821h24.819v1.991l-.206.309-.412.343-.549.206-.446.137H183.312v-.089l.063-.187.078-.3.094-.266.063-.344.078-.312v-.375l.071-.328v-.788Z" fill="#fac040" stroke="#707070" stroke-width="0.1"/>
  </g>
</svg>
